<?xml version="1.0" encoding="utf-8"?>
<!-- Generator: Adobe Illustrator 24.2.0, SVG Export Plug-In . SVG Version: 6.00 Build 0)  -->
<svg version="1.1" id="Ebene_1" xmlns="http://www.w3.org/2000/svg" xmlns:xlink="http://www.w3.org/1999/xlink" x="0px" y="0px"
	 viewBox="0 0 104 32" style="enable-background:new 0 0 104 32;" xml:space="preserve">
<style type="text/css">
	.st0{fill-rule:evenodd;clip-rule:evenodd;fill:#2b3444;}
</style>
<g id="_x2D_--_x21B3_-Onepager-Bewerbung-_x23__x23__x23__x23__x23__x23__x23__x23__x23__x23__x23__x23__x23__x23__x23__x23_">
	<g id="Onepager-V2" transform="translate(-256.000000, -198.000000)">
		<g id="khkt." transform="translate(255.499375, 197.741594)">
			<path class="st0" d="M9.8,21.5L7.4,24v8H0.5V0.3h6.9v8.5c0,1.8,0,3.3-0.1,4.6s-0.1,2.3-0.2,3.1L15,7.9h8.1l-8.5,8.9L24.1,32H16
				L9.8,21.5z M33.8,0.3V9c0,0.4,0,0.8,0,1.2c0,0.4,0,0.8,0,1.2h0.1c0.7-1.3,1.7-2.3,2.9-3c1.2-0.7,2.6-1.1,4.3-1.1
				c2.6,0,4.6,0.8,6.1,2.4s2.2,3.8,2.2,6.5V32h-7V17.5c0-1.3-0.3-2.4-1-3.2c-0.7-0.8-1.7-1.2-3-1.2c-1.4,0-2.5,0.5-3.3,1.5
				s-1.2,2.3-1.2,3.8V32h-7V0.3H33.8z M63.1,21.5L60.7,24v8h-6.9V0.3h6.9v8.5c0,1.8,0,3.3-0.1,4.6c0,1.3-0.1,2.3-0.2,3.1l7.8-8.6
				h8.1l-8.5,8.9L77.4,32h-8.1L63.1,21.5z M78.7,7.9h3.6V0.3h6.9v7.7h4.6v4.5h-4.6v11.9c0,0.9,0.2,1.5,0.7,1.8s1.1,0.5,1.9,0.5
				c0.2,0,0.5,0,0.8,0s0.6,0,0.8-0.1h0.4v5.3c-0.4,0.1-0.9,0.1-1.6,0.2c-0.7,0.1-1.5,0.1-2.5,0.1c-1.1,0-2.1-0.1-3-0.3
				c-0.9-0.2-1.7-0.5-2.3-1c-0.7-0.5-1.2-1.1-1.5-1.9c-0.4-0.8-0.5-1.8-0.5-3.1V12.5h-3.6V7.9z M97.1,24.6h7.4V32h-7.4V24.6z"/>
		</g>
	</g>
</g>
</svg>
