<svg enable-background="new 0 0 464.3 466.4" height="316.844796" viewBox="0 0 464.3 466.4" width="315.611937" xmlns="http://www.w3.org/2000/svg"><g fill="#1d1d1b"><path d="m192.6 371.8h.6c.5 0 1 .2 1.3.5.3.5.4 1.1.3 1.7l-.1 6c0 1.1-.1 2.3-.5 3.3-.4.7-.9 1.3-1.7 1.6-.9.4-1.8.6-2.8.6-.7 0-1.4-.1-2-.4-.5-.2-.9-.6-1.2-1-.3-.5-.5-1.1-.6-1.7-.1-.7-.1-1.3-.1-2l.1-6.4c0-.6.1-1.1.3-1.6.3-.4.9-.6 1.4-.5h.6v-.4l-6.7-.1v.4h.6c.5 0 .9.1 1.3.4.3.5.4 1.2.4 1.8l-.1 5.8c-.1 1.2 0 2.4.3 3.6.3.9 1 1.7 1.8 2.3 1.2.7 2.5 1 3.9.9 1.3.1 2.6-.2 3.7-.8.8-.5 1.5-1.2 1.9-2.1.4-1.1.5-2.3.5-3.4l.1-6c-.1-.5 0-1.1.3-1.6s.9-.7 1.4-.7h.6v-.4l-5.5-.1z"/><path d="m219.2 374.4h.4c.3 0 .6.1.8.3.1.1.2.3.2.5-.1.3-.2.5-.4.7-1.5 1.2-3 2.4-4.7 3.4l-1.8 1.1.7-4.5c0-.5.2-1 .4-1.4.1-.2.3-.4.6-.5s.7-.2 1.1-.1l.5.1.1-.4-6.6-.9-.1.4.6.1c.4 0 .7.2 1 .4.2.1.3.3.4.5.1.5 0 1-.1 1.5l-1.4 9.4c0 .6-.2 1.1-.5 1.6-.4.3-.9.5-1.5.3l-.6-.1-.1.4 6.6.9.1-.4-.5-.1c-.4 0-.7-.2-1-.4-.2-.1-.3-.3-.4-.5-.1-.5 0-1 .1-1.5l.7-4.7 4.6 5.7c.2.3.4.5.6.9v.5c0 .2-.2.3-.4.4-.3.1-.7.2-1 .1l-.1.4 7.3 1 .1-.4c-.7-.1-1.3-.4-1.9-.8-.8-.6-1.5-1.3-2.1-2.1l-4.8-6 2.7-1.9c1.6-1.1 2.4-1.8 2.6-1.9.5-.4 1.1-.7 1.6-.9.3-.2.7-.3 1.1-.3h.9l.1-.4-5.7-.8z"/><path d="m239.8 378c.6-.4 1.3-.6 2-.5s1.4.3 2 .7 1 .9 1.3 1.5c.3.8.5 1.6.4 2.4h.5l.6-5.1h-.4c-.1.2-.2.5-.4.6-.1.1-.3.1-.5.1-.3-.1-.6-.2-.9-.4-.8-.5-1.6-.8-2.5-.9-1.2-.2-2.4.1-3.4.8-.9.6-1.5 1.5-1.6 2.6-.1.6 0 1.2.2 1.7.3.6.6 1.1 1.1 1.5.8.7 1.7 1.4 2.6 2 .8.5 1.5 1.1 2.2 1.7.4.3.6.7.8 1.1s.2.7.2 1.1c-.1.6-.4 1.2-1 1.6-.7.4-1.5.6-2.4.5-.8-.1-1.5-.4-2.2-.8-.6-.4-1.1-.9-1.4-1.5-.3-.8-.5-1.6-.5-2.5h-.4l-.6 5h.4c0-.2.2-.5.3-.6s.3-.1.5-.1c.5.1.9.3 1.4.5s.9.4 1.4.6c.4.1.8.2 1.3.2 1.3.2 2.6-.1 3.7-.8 1-.6 1.6-1.6 1.7-2.7.1-.6 0-1.2-.2-1.7-.2-.6-.6-1.1-1-1.5-.9-.7-1.8-1.4-2.7-2-1.2-.7-2.2-1.5-3.1-2.5-.3-.4-.4-.8-.3-1.3.1-.4.4-1 .9-1.3z"/><path d="m278.2 377.8-4.6.2v.4c.4 0 .8 0 1.1.1.2 0 .3.2.4.3s.2.3.2.5c-.1.6-.2 1.3-.4 1.9l-2.7 8.2-3.3-7.9c-.3-.6-.5-1.3-.6-1.9 0-.3.1-.5.3-.7.3-.2.6-.3.9-.3h.4v-.4l-6.1.2v.4h.7c.2.1.4.1.6.3.1.1.3.2.4.3.2.3.4.6.6.9l.4 1 .5 1.2-2.3 7.1-3.4-8.2c-.3-.6-.5-1.1-.6-1.7 0-.2.1-.5.3-.6.3-.2.6-.3.9-.3h.3v-.4l-5.8.2v.4c.4 0 .7 0 1.1.2.3.1.5.3.6.6.1.2.3.7.7 1.6l5 12.1h.4l3.2-9.5 3.9 9.3h.5l3.9-12c.2-.6.4-1.2.7-1.8.2-.3.4-.6.7-.8s.7-.2 1-.2z"/><path d="m79.8 381.8-13.6 11.4-.9-1.4c-.2-.2-.5-.5-.7-.7-.3-.3-.5-.5-.7-.8l13.5-11.3c1.8-1.3 3.1-3.1 3.9-5.2.8-2.7 0-5.4-2.4-8.2-2.2-2.6-4.6-3.7-7.5-3.4-2.5.4-4.8 1.5-6.7 3.2l-12.7 10.8-.6-1-1-.9 13.3-11.1c3-2.5 6-3.6 9.1-3.3s5.8 2 8.3 5c2.8 3.4 4 6.6 3.6 9.6-.5 2.5-2.1 4.9-4.9 7.3"/><path d="m67.1 349.1-24.6 15.4-.9-1.4 7.8-28.6-.2-.4-18.5 11.6-.5-1.1-.8-1 24.6-15.4.7 1.1c-1.1 3.6-2.1 6.9-3 9.8-.9 3.3-1.9 6.5-2.8 9.8l-2.9 9.8.2.4 19.4-12.1.6 1.2z"/><path d="m24.6 334.3-.7-1.6-1-1.7 25.9-13.2.7 1.8.9 1.5z"/><path d="m19.6 323.7-.6-2.1-.9-1.8c2.4-2 4.6-4 6.6-5.9 1.3-1.2 3.4-3.2 6.3-5.8 2.2-2 4.3-4 6.4-6l-.1-.4c-2.2-.2-5-.3-8.5-.4-2.7-.1-5.7-.1-9 0l-8.8.1-.4-1.4-.8-1.5c5.2.3 10.4.6 15.6.7s10.5.2 15.9.3l.2.9.5.7c-2.3 2.4-4.8 4.9-7.4 7.5s-5.2 5.1-7.7 7.6c-3.1 3.3-5.5 5.8-7.3 7.5"/><path d="m36.2 283.9-28.1 6.5-3.4-14.6 1.4-.2 1.1-.4c.1 1.2.2 2.4.4 3.6.2 1.4.5 2.7.7 3.9l.8 3.6 10.3-2.4-1.5-6.4c-.1-.6-.3-1.1-.5-1.7-.3-.8-.5-1.5-.5-1.9l1.1-.1 1.1-.4.5 3.7 1.5 6.4 12.1-2.8-.1-1c-.3-1.5-.8-3.4-1.5-5.5-.4-1.6-1-3.2-1.6-4.7l1.2-.1 1.3-.5z"/><path d="m16 261.7c0-.4 0-.7 0-1.1l-.1-1c-.4-3.3-1.4-5.6-3.2-6.9-1.2-.9-2.7-1.3-4.2-1.1-1.8.1-3.3 1.2-4 2.9-.6 1.7-.8 3.5-.5 5.3l.4 3.4zm16.1 1.7-28.8 3.6-1.1-9.2c-.4-3.2-.1-5.5.8-7.1 1-1.6 2.7-2.6 4.6-2.7 2.4-.3 4.8.6 6.3 2.5 1.3 1.5 2.2 3.3 2.7 5.2 4.3-4.4 8.7-8.9 13-13.3l.2 2.9.5 1.9c-2.2 2-4.4 4.1-6.5 6.2-2.8 2.7-4.8 4.9-6.3 6.5l.2 1.6 14.1-1.7.1 1.9z"/><path d="m7.6 238c-2.5.1-4.8-1.2-6.1-3.3-1.1-1.9-1.6-4.1-1.5-6.3 0-1.2.3-2.4.7-3.5.4-.9.9-1.8 1.6-2.6.4.2.9.4 1.7.7l1.7.6v.4c-1.2.3-2.2 1-2.9 2-.6.9-1 2-1 3.1-.1 1.4.4 2.8 1.3 3.9.8 1 2.1 1.6 3.4 1.6 1.3.1 2.6-.3 3.6-1.2.8-.7 1.4-1.6 1.9-2.6l2-4.3c.6-1.4 1.5-2.6 2.6-3.5 1.3-.9 2.9-1.3 4.6-1.2 2.4.1 4.6 1.2 6.2 3 2.7 3.3 3.4 7.8 1.8 11.8-.4 1.1-1.1 2.1-1.9 2.9-.5-.2-1-.3-1.6-.5-.7-.2-1.5-.3-2.2-.4v-.4c1.5-.8 2.9-2 3.8-3.4.5-.9.8-1.9.9-3 .1-1.7-.5-3.3-1.7-4.5-1.1-1.2-2.6-1.9-4.1-1.9-1.1-.1-2.3.3-3.2.9-1.1.8-1.9 1.9-2.5 3.1l-1.9 4.1c-.7 1.7-1.9 3.2-3.6 4-1.1.3-2.4.5-3.6.5"/><path d="m1.1 213.7.3-1.7v-2.1l29 2.6-.4 1.9v1.8z"/><path d="m32.3 198.5-26.5-5.1-.2 1c-.3 1.4-.5 2.8-.7 4.1s-.3 2.6-.4 4l-1.2-.3-1.3-.2 4.2-21.4 1.3.4 1.2.1c-.4 1.3-.8 2.7-1.2 4s-.7 2.9-1 4.7l26.6 5.2-.5 1.8z"/><path d="m23.6 175.6 2.6-8.9-11.7 1.6zm10.4 11.4-24.9-20.9.3-1 32-4-.8 2.3-.4 2c-4 .2-8.1.6-12.3 1.1l-2.9 10.4c1.5 1.1 2.7 2 3.6 2.8 2 1.6 4.1 3.1 6.3 4.5l-.6 1.5z"/><path d="m23.2 148.5c-2.3-.9-4-3-4.3-5.5-.3-2.2.1-4.4 1.1-6.3.5-1.1 1.2-2.1 2-3 .7-.7 1.5-1.3 2.4-1.8.4.5.8.9 1.3 1.3.6.6 1.1 1 1.4 1.2l-.2.4c-1.2-.1-2.4.1-3.5.8-.9.6-1.7 1.5-2.2 2.5-.6 1.2-.7 2.7-.3 4s1.3 2.3 2.5 2.9 2.6.7 3.8.3c1-.3 1.9-.9 2.7-1.7l3.5-3.2c1-1 2.4-1.8 3.8-2.2 1.6-.3 3.2-.1 4.7.7 2.2 1 3.8 2.9 4.5 5.1.9 2.8.7 5.8-.7 8.4-.5 1.2-1.3 2.2-2.2 3.1-.8.8-1.8 1.5-2.8 1.9-.4-.4-.8-.7-1.3-1.1-.6-.4-1.2-.9-1.9-1.2l.2-.4c1.7-.1 3.4-.7 4.8-1.7.8-.7 1.5-1.5 2-2.4.7-1.5.8-3.2.2-4.8-.5-1.5-1.6-2.7-3.1-3.4-1-.5-2.2-.7-3.3-.5-1.3.3-2.5.9-3.5 1.9l-3.3 3.1c-1.3 1.4-3 2.2-4.9 2.3-1.1.2-2.3-.1-3.4-.7"/><path d="m44.6 121.2c-3.5-2.1-5.9-5.6-6.7-9.6-.7-3.9.2-7.9 2.9-12 1.7-2.6 4-4.9 6.6-6.5.3.4.6.8.9 1.2s.8.8 1.3 1.3l-.1.4c-6.1 1-10.2 6.7-9.2 12.7.1.4.1.7.2 1.1.9 3.1 3.1 5.8 6.5 8.1 3.6 2.3 7 3.1 10.4 2.5 2.9-.5 5.3-2.2 6.9-4.7.9-1.4 1.5-2.9 1.8-4.5s.4-3.3.2-4.9l2.1 1.7c-.1 1.6-.4 3.3-.9 4.8s-1.2 3-2.1 4.3c-2.5 3.9-5.6 6.2-9.3 6.9s-7.6-.2-11.5-2.8"/><path d="m67.8 91.9 6-7-11.2-3.5zm4.7 14.9-13.7-29.5.7-.8 30.7 9.9-1.7 1.8-1.1 1.7c-3.7-1.5-7.6-2.9-11.7-4.2l-7 8.1c.9 1.6 1.6 3 2.1 4 1.6 3 2.8 5.3 3.8 6.7l-1.2 1z"/><path d="m86.2 69.2c.3-.2.6-.4.9-.6l.8-.6c2.6-2.1 3.9-4.3 4.1-6.4.1-1.5-.3-3-1.3-4.1-1.1-1.4-2.8-2.1-4.6-1.8-1.8.4-3.4 1.2-4.7 2.5l-2.6 2.2zm7.3 14.5-18.7-22.2 7.1-6c2.4-2 4.6-3.1 6.4-3.2 1.9-.1 3.7.8 4.8 2.3 1.6 1.8 2.1 4.3 1.3 6.6-.5 1.9-1.5 3.7-2.9 5.1l18.2 3.7-2.4 1.8-1.3 1.5c-2.9-.7-5.8-1.4-8.7-2.1-3.8-.8-6.7-1.4-8.9-1.7l-1.3 1.1 9.1 10.9-1.6 1.1z"/><path d="m102.4 41.4 13.4 21.4c.8-.5 1.9-1.1 3.2-1.8s2.2-1.2 2.8-1.6c3.2-2 5-4.5 5.4-7.5s-.4-6.4-2.7-10c-2.2-3.6-4.6-5.7-7.1-6.3-2.3-.5-4.6-.2-6.7.8-1.3.6-2.6 1.3-3.8 2.1l-.8.5c-.6.3-1.3.8-2.1 1.5s-1.4.8-1.6.9m-4.1.5 11.4-7.1c2.5-1.7 5.6-2.5 8.6-2.3 2.2.3 4.4 1.3 6.1 2.8 1.3 1.1 2.4 2.4 3.3 3.8 1.2 1.9 2.1 4.1 2.6 6.3.5 2.6.3 5.3-.7 7.8-1.5 3.2-3.9 5.9-7 7.6l-9 5.6z"/><path d="m128.8 24.1 1.6-.6 1.6-1.1 13.2 25.9-1.7.7-1.6 1z"/><path d="m152.4 44.6-9-27.6 1.6-.5 25.9 14.5.4-.1-6.8-20.8 1.1-.2 1.2-.5 9 27.6-1.3.4c-3.2-1.9-6.2-3.7-8.8-5.2-2.9-1.7-5.9-3.4-8.9-5.1l-8.8-5.1-.4.1 7.1 21.8-1.3.2z"/><path d="m185.9 20.3 9.1-1.6-6.6-9.7zm-5.7 14.5 7.8-31.5 1-.2 17.6 27-2.4.3-1.9.5c-1.9-3.5-4.1-7.1-6.4-10.6l-10.6 1.9c-.3 1.8-.6 3.3-.9 4.5-.7 3.4-1.1 5.9-1.3 7.6l-1.6.1z"/><path d="m211.1 29.8-2-28.8h1.6l2.2-.3 1.9 26.8h1.3c1.6-.1 3.2-.3 5-.5s3.5-.5 5.3-.9l-.1 1.5c.1.2.1.4.2.6l.1.5z"/><path d="m233.1 0 1.7.2 2-.1-.5 29.1-1.9-.3-1.8.1z"/><path d="m244.4 7.5c0-2.5 1.4-4.8 3.6-6 1.9-1 4.1-1.5 6.3-1.3 1.2.1 2.4.4 3.5.8.9.4 1.8 1 2.5 1.7-.3.5-.5 1.1-.7 1.7-.3.8-.5 1.3-.7 1.7h-.4c-.3-1.2-1-2.2-1.9-3-.9-.7-2-1-3.1-1.1-1.4-.1-2.8.3-3.9 1.2-1 .8-1.7 2-1.7 3.3-.1 1.3.2 2.6 1.1 3.7.7.8 1.5 1.5 2.5 2l4.2 2.1c1.3.6 2.5 1.6 3.4 2.8.8 1.4 1.2 3 1 4.6-.2 2.4-1.3 4.6-3.2 6.1-2.3 1.8-5.2 2.6-8.1 2.3-1.3-.1-2.5-.4-3.7-1-1.1-.5-2-1.1-2.8-2 .2-.5.4-1 .6-1.5.2-.7.4-1.4.5-2.2h.4c.7 1.6 1.9 2.9 3.3 3.9.9.5 1.9.9 3 1 1.7.1 3.3-.4 4.5-1.5 1.2-1 2-2.5 2.1-4.1.1-1.1-.2-2.3-.7-3.2-.7-1.1-1.8-2-3-2.5l-4.1-2c-1.7-.7-3.1-2.1-3.9-3.8-.5-1.3-.7-2.6-.6-3.7"/><path d="m281.3 12.4c.5-2.4 2.3-4.4 4.6-5.2 2.1-.6 4.3-.6 6.4 0 1.2.3 2.3.8 3.3 1.5.8.6 1.6 1.3 2.1 2.1-.4.5-.7 1-1 1.5-.5.7-.8 1.2-1 1.6l-.4-.1c-.1-1.2-.6-2.4-1.4-3.3-.8-.8-1.8-1.4-2.9-1.7-1.3-.4-2.8-.3-4 .4-1.2.6-2 1.7-2.4 2.9-.4 1.3-.3 2.6.3 3.8.5.9 1.2 1.8 2.1 2.4l3.8 2.9c1.2.8 2.2 2 2.8 3.4.6 1.5.7 3.2.2 4.7-.6 2.3-2.2 4.3-4.3 5.4-2.6 1.4-5.6 1.7-8.4.8-1.2-.3-2.4-.9-3.4-1.7-1-.6-1.8-1.5-2.4-2.5.3-.5.6-.9.8-1.4.3-.6.6-1.3.9-2l.4.1c.4 1.7 1.3 3.2 2.5 4.4.8.7 1.7 1.2 2.7 1.5 1.6.5 3.3.2 4.8-.6 1.4-.8 2.4-2.1 2.8-3.6.3-1.1.3-2.3-.1-3.3-.5-1.2-1.4-2.3-2.5-3.1l-3.6-2.8c-1.6-1-2.7-2.6-3.1-4.4-.1-1.2 0-2.5.4-3.7"/><path d="m302.8 41.9 9.7-25.2-1-.4c-1.4-.5-2.7-1-4-1.4s-2.5-.7-3.8-1.1l.5-1.1.5-1.3 20.4 7.8-.6 1.2-.3 1.2c-1.2-.7-2.5-1.3-3.7-1.8s-2.7-1.2-4.4-1.8l-9.7 25.2-1.7-.8z"/><path d="m318.8 48.3 13.1-25.7 13.4 6.8-.8 1.2-.4 1.1c-1-.7-2-1.4-3.1-2.1-1.2-.7-2.4-1.4-3.5-1.9l-3.3-1.7-4.8 9.4 5.9 3c.3.1.8.4 1.6.7s1.4.6 1.8.8l-.7.9-.4 1.1-3.2-2-5.9-3-5.5 11.3.8.5c1.4.7 3.1 1.5 5.1 2.4 1.5.7 3 1.3 4.6 1.9l-.7 1-.5 1.3z"/><path d="m354.9 37-6.6 10.5 1.6 1.1.9.5.6.4.5.3c1.6.9 3.5 1.2 5.3.8 1.7-.5 3.1-1.6 4-3.1.8-1.1 1.2-2.5 1.1-3.9s-1-2.7-2.2-3.4l-1.5-.9-1.8-1.1zm-7.5 11.9-7.1 11.3-1.5-1.2-1.7-.9 11.5-18.4 3.9-6.2 8 5c2.8 1.7 4.5 3.4 5.1 5.1s.2 3.5-1.1 5.6c-1 1.9-2.9 3.3-5 3.7-2.5.3-5-.1-7.2-1.1l-2.3-1.2z"/><path d="m356.6 72 18.6-22.2 1.2 1.2 1.7 1.2-7.8 9.3 6.5 5.7 7.3 5.8 7.8-9.3 1.2 1.3 1.6 1.2-18.7 22-1.4-1.1-.8-.7c-.3-.2-.5-.4-.6-.5l9.4-11.2-6.8-5.9-6.9-5.5-9.3 11.1-.6-.5-.5-.4-.5-.4-.7-.6c-.4-.2-.6-.4-.7-.5"/><path d="m394.3 89.5 6 7 5-10.7zm-15.4 2.6 31.1-9.5.7.8-14.1 29.1-1.5-2-1.5-1.4c2-3.5 3.9-7.2 5.8-11l-7-8.1c-1.7.6-3.2 1.2-4.3 1.6-3.2 1.1-5.6 2.1-7.2 2.8l-.9-1.3z"/><path d="m399.1 116.4 25.1-14.5.8 1.4-8.8 28.4.2.4 18.9-10.9.4 1.1.8 1-25.1 14.5-.7-1.2c1.2-3.6 2.3-6.8 3.3-9.7 1-3.2 2.1-6.5 3.1-9.7 1.1-3.3 2.1-6.5 3.2-9.8l-.2-.4-19.8 11.4-.5-1.2z"/><path d="m441.5 132.9.6 1.7.9 1.7-26.3 12.3-.6-1.8-1-1.6z"/><path d="m426.1 172.1c4-2.4 8.2-5 12.6-7.6 5-3.1 9.5-5.9 13.3-8.4l.3 1.9.7 1.9-7.2 4.2c-2.7 1.6-5.1 3-7.2 4.2s-4.6 2.8-7.5 4.6l.1.4c4.6.4 8.9.8 12.8 1.1 4.7.4 9 .7 12.8.9.1.2.1.5.1.7v.6l.5 1.1-21.7 13.7.1.4c2.7.2 5.6.4 8.9.6 3 .2 5.8.4 8.3.5l8.2.4.1 1.2.6 1.6c-1.7-.3-4.3-.5-7.8-.8s-7.1-.6-10.7-.9c-4.5-.4-8.6-.8-12.2-1.1l-.2-1.4-.5-1.3 21.3-13.2-.1-.3-25.1-2.2-.2-1.5z"/><path d="m446.2 213.9 15.8-11.9v2.5l.4 2.2c-1.4.9-2.9 1.9-4.5 3-2.7 1.9-4.2 2.8-4.3 2.9s-1.7 1.2-4.6 3.3c1.4.8 3 1.6 4.7 2.4s3.4 1.6 5.1 2.3l5 2.1v1.7l.3 1.6c-1.8-1.1-3.6-2.2-5.5-3.1-2.3-1.2-4.7-2.4-7.1-3.6-1.4-.7-2.8-1.3-4.2-1.9l-13 1.1v-2l-.3-1.5z"/><path d="m456.5 232.6c2.5-.1 4.8 1.1 6.2 3.2 1.1 1.9 1.7 4 1.6 6.2 0 1.2-.2 2.4-.6 3.5-.3 1-.9 1.8-1.5 2.6-.6-.3-1.1-.5-1.7-.7-.8-.3-1.4-.4-1.7-.6v-.4c1.2-.4 2.2-1.1 2.9-2.1.6-.9 1-2 1-3.1.1-1.4-.4-2.8-1.4-3.8-.9-1-2.1-1.6-3.4-1.6-1.3-.1-2.6.4-3.6 1.2-.8.7-1.4 1.6-1.8 2.6l-1.9 4.4c-.5 1.4-1.4 2.6-2.5 3.6-1.3.9-2.9 1.4-4.5 1.3-2.4 0-4.7-1.1-6.2-2.9-2-2.2-3-5.1-2.8-8 0-1.3.3-2.6.8-3.7.4-1.1 1-2.1 1.8-2.9.5.2 1 .3 1.6.5.7.2 1.5.3 2.2.4v.4c-1.5.8-2.8 2-3.7 3.5-.5.9-.8 2-.9 3-.1 1.7.6 3.3 1.7 4.5s2.6 1.8 4.2 1.9c1.1 0 2.3-.3 3.2-.9 1.1-.8 1.9-1.9 2.4-3.1l1.8-4.2c.6-1.8 1.9-3.2 3.5-4.1.9-.6 2.1-.8 3.3-.7"/><path d="m462.5 258.1-3.9 21.9-.8-.1c-7-7.6-14.5-15.1-22.4-22.7l-1.3 6.5c0 1.3-.2 3.1-.5 5.4s-.5 4.4-.9 6.2l-1.3-.4h-1.2l4.1-23.4.9.1c2.8 2.8 5.4 5.4 7.6 7.7 3.2 3.3 5.7 5.8 7.3 7.4 2.8 2.8 5.3 5.3 7.5 7.4l.4-2.2c.9-4.7 1.5-9.5 1.9-14.3l1.4.3z"/><path d="m438.7 290.5 18.9-5.7-.8 2.3-.4 2.2c-1.6.4-3.3.8-5.2 1.3l-5.1 1.3c-.2 0-2 .5-5.5 1.5 1.1 1.2 2.3 2.6 3.6 3.9s2.7 2.7 4 3.9 2.7 2.5 4 3.7l-.6 1.5-.3 1.6c-1.3-1.7-2.7-3.3-4.1-4.8-1.8-1.9-3.6-3.9-5.4-5.7-1-1.1-2.1-2.2-3.3-3.2l-12.6-3.4.7-1.9.3-1.7z"/><path d="m420.9 304.9 26.5 11.8-.7 1.5-28.1 9.5-.2.4 20 8.9-.6 1-.4 1.2-26.5-11.8.5-1.2c3.6-1.1 6.9-2.1 9.8-3 3.2-1.1 6.5-2.1 9.7-3.2l9.8-3.2.2-.4-20.9-9.3.7-1.1z"/><path d="m425.6 344.9c2.2 1.2 3.6 3.5 3.6 6 0 2.2-.6 4.3-1.8 6.1-.6 1-1.4 1.9-2.4 2.7-.8.6-1.7 1.1-2.6 1.4-.2-.3-.6-.8-1.1-1.5s-.9-1.1-1.2-1.4l.2-.3c1.2.3 2.4.2 3.5-.3 1-.5 1.9-1.2 2.5-2.2.8-1.2 1.1-2.6.8-4-.2-1.3-1-2.4-2.1-3.1s-2.4-1-3.8-.8c-1.1.2-2 .6-2.9 1.3l-3.9 2.8c-1.2.9-2.5 1.5-4 1.7-1.6.1-3.2-.3-4.6-1.2-2-1.3-3.5-3.3-3.9-5.7-.6-2.9 0-5.9 1.7-8.3.7-1.1 1.6-2 2.6-2.8.9-.7 2-1.2 3.1-1.5.4.4.7.8 1.1 1.2.5.5 1.1 1 1.7 1.5l-.2.4c-1.7-.1-3.5.3-5 1.1-.9.5-1.7 1.3-2.3 2.1-.9 1.4-1.2 3.1-.8 4.7.3 1.6 1.3 2.9 2.7 3.8 1 .6 2.1.9 3.2.9 1.3-.1 2.6-.6 3.7-1.5l3.7-2.6c1.4-1.2 3.3-1.8 5.1-1.7 1.2 0 2.4.5 3.4 1.2"/><path d="m394.7 351.9 22.9 17.9c-.2.3-.4.5-.7.7l-.5.5-1.1 1.7-10.4-8.1-.2.1c-.2.7-.3 1.4-.1 2.1.1.7.2 1.5.3 2.6l1.9 14.1c-.1.2-.3.4-.5.6l-.6.6-.9 1.5c-.3-2.5-.5-4.5-.7-6.1-.6-6.1-1.1-10.1-1.3-12.2-2.2.1-4.5.2-6.9.4-3.1.2-5.4.4-6.9.4-2.8.1-5.1.2-7.1.2l-.2-.1 1.5-1.7 1.4-2.1c2.9.2 5.8.2 8.8 0 3-.1 6.1-.3 9.1-.4.3 0 .7 0 1-.1.3 0 .5-.1.7-.3l.1-.1-11.7-9.2 1.3-1.4z"/><path d="m399.1 391.5-1.3 1.1-1.2 1.6-21.2-19.8 1.4-1.3 1.1-1.4z"/><path d="m226 135c-.1-2.7.3-4.1.9-4.9-.7.7-1 2.2-.9 4.9z"/><path d="m232.1 135.9c-.4-2.3 1.2-6-1.8-6.6h-.9c-.9-.1-1.9.2-2.6.8-.6.8-1 2.2-.9 4.9-14-7.1-23.1 4.2-10.4 16.3v2.7c7.1-3 6.8 1 29.2-.2v-2.6c1.7-4.6 4.3-5 5.2-7.8 2.3-7.6-2.5-15.2-17.8-7.5zm-3.6 13.5c-7.7 1.8-10.3-7.8-6.6-11.5-10.4 2.4-2 6.9-3.3 10.9-11.1-6.5-6.7-18.3 4.2-11.6 4.9 3 6.3 7.1 5.7 12.2zm12-.6c-1.4-4.1 7-8.6-3.4-10.9 3.7 3.8 1.1 13.3-6.6 11.5-.6-5.1.8-9.2 5.7-12.2 11-6.7 15.4 5.2 4.3 11.6z"/><path d="m232.6 135.4c-.2-.8-.3-1.7-.2-2.6.1-1.8-.3-3.4-1.9-3.5h-.3v-3.1h3.3v-1.6h-3.3v-3.3h-1.6v3.3h-3.3v1.6h3.3v3.1c-.6 0-1.2.3-1.6.8-.6.8-1 2.2-.9 4.9-14-7.1-23 4.2-10.4 16.3v2.6c7.1-3 6.8 1 29.2-.2v-2.5c1.7-4.6 4.3-5 5.2-7.8 2.1-7.6-2.2-15.7-17.5-8zm-4.1 14c-7.7 1.8-10.3-7.8-6.6-11.5-10.4 2.4-2 6.9-3.3 10.9-11.1-6.5-6.7-18.3 4.2-11.6 4.9 3 6.3 7.1 5.7 12.2zm12-.6c-1.3-4.1 7.1-8.6-3.3-10.9 3.7 3.8 1.1 13.3-6.6 11.5-.6-5.1.8-9.2 5.7-12.2 11-6.7 15.4 5.2 4.2 11.6z"/><path d="m319.8 176.9c-24.8 11.8 2.3 39.4-32 51.5 35-6 11.8-32.7 32-51.5"/><path d="m173.7 79c.1-.1.3-.1.4-.1l1.2.6c.4.2.8.5 1.2.7s.7.3 1.1.3c1.1.3 2.3.2 3.4-.4 1.4-.8 2.2-2.4 1.8-4-.1-.6-.4-1.1-.8-1.5-.7-.8-1.4-1.5-2.2-2.2-1-.8-1.8-1.7-2.5-2.7-.2-.4-.3-.8-.2-1.2.1-.6.5-1 1-1.3.6-.3 1.3-.4 1.9-.2.6.1 1.2.4 1.7.9.5.4.8 1 1 1.6.2.8.3 1.5.1 2.3l.4.1 1.1-4.9-.4-.1c-.1.2-.2.4-.4.6-.1.1-.3.1-.5 0-.3-.1-.5-.2-.7-.4-.7-.5-1.4-.8-2.2-1-1.1-.3-2.2-.1-3.1.4s-1.5 1.3-1.7 2.3c-.1.5-.1 1.1 0 1.6.2.6.4 1.1.8 1.5.7.8 1.4 1.5 2.1 2.1 1 .9 1.6 1.5 1.9 1.8s.5.7.6 1.2c.3 1-.1 2-1 2.5-.7.3-1.4.4-2.1.2s-1.4-.5-1.9-1c-.5-.4-.9-.9-1.1-1.5-.2-.8-.3-1.6-.2-2.4l-.4-.1-1.1 4.7.4.1c.1-.2.2-.4.4-.5z"/><path d="m193.8 83.7c1.8.3 3.7-.1 5.2-1.3 1.6-1.2 2.6-3 2.8-4.9.4-1.9-.1-3.9-1.2-5.4-1-1.5-2.6-2.5-4.3-2.8s-3.5.1-4.9 1.1c-1.7 1.1-2.8 3-3.1 5-.4 1.9 0 3.9 1.1 5.6.9 1.4 2.6 2.4 4.4 2.7zm-3.2-8c.2-1.8.9-3.5 2.2-4.8.9-.8 2.1-1.1 3.2-.9 1.2.1 2.3.8 2.9 1.9.8 1.7 1 3.7.6 5.5-.1 1.7-.8 3.3-2 4.6-.9.9-2.2 1.2-3.5 1-1.2-.2-2.2-.8-2.7-1.9-.9-1.7-1.1-3.6-.7-5.4z"/><path d="m217.6 82.2-.3-.1c-.3.7-.7 1.3-1.2 1.8-.4.3-.8.6-1.3.7-.8.1-1.5.1-2.3 0l-1-.1c-.5 0-1.1-.1-1.6-.2-.2-.1-.3-.2-.4-.4-.1-.4-.1-.8-.1-1.2l.8-8.8c0-.5.1-1.1.3-1.6.2-.2.4-.4.7-.5.5-.1 1-.2 1.6-.1v-.4l-6.3-.5v.4h.5c.4 0 .9.2 1.1.6.2.5.3 1.1.1 1.7l-.8 9c0 .5-.1 1-.4 1.5-.3.4-.8.6-1.3.5h-.5v.5l10.8 1z"/><path d="m227.7 86.3h-.5c-.3 0-.6-.1-.9-.3-.2-.1-.3-.3-.4-.5-.1-.5-.1-.9-.1-1.4l.5-9c0-.5.1-1.1.3-1.6.3-.3.8-.5 1.3-.4h.5v-.4l-6-.3v.4h.5c.3 0 .7.1.9.3.2.1.3.3.4.5.1.5.1.9.1 1.4l-.5 9c0 .5-.1 1.1-.3 1.6-.3.3-.8.5-1.3.4h-.5v.4l6 .3z"/><path d="m240 73.1c.4-.1.9.1 1.2.4.3.5.4 1.1.4 1.6l.3 9c.1.5 0 1-.2 1.5-.3.4-.7.7-1.2.6h-.5v.4l6.3-.2c2.7-.1 4.7-.9 6-2.4 1.2-1.4 1.7-3.2 1.6-5 0-1.3-.4-2.7-1.1-3.8-.6-1-1.6-1.8-2.7-2.2-1.5-.5-3.2-.7-4.8-.6l-5.7.2v.4zm5.6.2c1.5-.1 3 .4 4.1 1.5 2.2 2.6 2.3 6.4.3 9.2-1 1.1-2.4 1.8-3.9 1.8-.7 0-1.5-.1-2.2-.2l-.4-11.9c.7-.2 1.4-.3 2.1-.4z"/><path d="m257.5 72.2c.4-.1.9 0 1.3.3.3.5.5 1 .4 1.6l1 9.1c.1.5.1.9 0 1.4-.1.2-.2.4-.4.5-.3.2-.6.3-.9.3l-.5.1v.4l10.7-1.1.8-3.6h-.4c-.3.7-.6 1.4-1.1 2.1-.3.3-.6.6-1 .8-.5.2-1.1.3-1.7.3l-2.4.2c-.3.1-.5.1-.8 0-.1-.1-.2-.2-.3-.3-.1-.4-.2-.7-.2-1.1l-.5-4.6 3.1-.3c.4-.1.9 0 1.3.1.3.1.5.3.7.5.2.4.3.8.4 1.3h.4l-.5-4.9h-.4c.1.6-.1 1.2-.4 1.7-.4.4-1 .5-1.6.5l-3.1.3-.5-5.5 3.8-.4c.5-.1 1-.1 1.5 0 .3.1.6.3.8.6.3.4.5.9.6 1.5h.4l-.5-3-10.5 1v.4z"/><path d="m276.8 82c3 2.2 7.2 1.6 9.4-1.3.1-.1.1-.2.2-.3 1.1-1.6 1.5-3.6 1.2-5.6-.2-1.9-1.3-3.6-2.8-4.8-1.4-1.1-3.2-1.6-5-1.3-1.7.2-3.3 1.2-4.4 2.6-1.3 1.6-1.8 3.7-1.4 5.8.2 1.9 1.2 3.7 2.8 4.9zm.1-10.6c.6-1 1.6-1.7 2.8-1.8 1.2-.3 2.4.1 3.3.9 1.3 1.4 2.1 3.2 2.2 5.1.4 1.7.2 3.4-.5 5-.6 1.1-1.7 1.8-3 2-1.1.2-2.3-.1-3.2-.9-1.3-1.4-2.1-3.1-2.3-5-.3-1.8-.1-3.7.7-5.3z"/><path d="m324.2 211.3c-.9-.3-1.9-.5-2.9-.7 1 .3 1.9.6 2.9.7z"/><path d="m248.3 264.3c.2-1 .3-2.1.4-3.2-.1 1.1-.3 2.2-.4 3.2z"/><path d="m406.7 249.6c0-22-9.5-40.2-23.4-56.8 18.1-10.4 20.8-24.1 3.9-19.1 7.7-4.8 21.9-29.4-3.5-16.2 3.5-4.5 7.4-9.3 8.5-16.2.2-4.2.1-17.8-7.2-10.4-3.6 3.3-7.7 6.1-12.1 8.2.6-7.5 4.4-14.1-1.7-21.5-14.7-10.6-10.6-20.8-25.9-23-7.9.7-15.6 2.5-23 5.3-.4-6.5 9.4-11.8-.5-18.4-12.2-7.9-20.4-21-36.7-23.7-9.4-1.5-35.3 6.3-56.1 5.1-27.1 0-41.4-9.6-60.4-2.7-11 5.8-21.1 13.4-29.7 22.5-5.7 3.2-7.5 8.3-.7 17.6-9.5 0-21.6-9-28.4 0l-14.5 16.3c-9.2 7.3-10.8 17.4-7.6 24.4-3.9-1.5-7.5-3.7-10.7-6.4-10.7-2.8-13.6 13.7 5.1 25.2-5 0-10-.7-14.7-2.2-12.9-4.3-8.3 14.8 9.8 20.5l-10 .8c-4.7 2.8-.2 13.9 12.9 19-15.5 20.6-23.8 41.9-19.2 64.8 7.4 37.3 42.4 55.3 40.4 82.5 4.4-8.1 10.4-14.8 16.8-20.9 13.4-21.5-7.9-40.3-26.4-56.4-17.4-20.6 10.8-37.5 13.1-41.9 2.6 1.5 6.2.2 9.9-.3-6.2 8.1-3.1 12.4 9.3 12.8-6.2 9.2 0 12.4 11.6 13.1-8.5 15 3.5 17.1 14 14.2 2.6 8.3 8.9 8.1 16.9 4.1-2.2 13.3 15.7 13.6 29.4-3.2l6.4-8.6c-18 21.9-39.6 22.5-32.1 11.6 4.5-5 8.5-10.5 11.9-16.4 1.5 2.1 4.3 2.7 8.2 1.8-2.7 4.3-6.4 8.1-10.2 11.8 6.8-4.8 12.9-10.4 18.2-16.8-14.8 4.9-17.9-.4-11.6-8.2 1.5-.6 3.6-.8 5.4-2.5 3.4 9 12.4 6.9 19.8-4.5-13.8 11-17.2 10.4-16.9.2-10.1 8.4-16.5 3.7-10.5-8.8-10.9 9.9-22 3.2-11.9-8.2-13.6 4-15.3-3.2-7.8-10.9-21.7 6.2-26.1-2.4-10.7-10.3-25.5 3.3-26.6-9.7-2.5-12.1-24.8 1.5-47.3-12.2-32.7-13.5 3.7.8 12.3 1 22.7 2-20.7-1.8-31.5-18.8-20.4-14.8 10.1 4.4 14.5 7.2 31.9 11.1s25.8 9.8 33.9 33.1c8.6 18.1 22.6 20.7 36.6 9.7 8.1-6.4 9.7-22.1-1.8-33.5-2.8-2.8-5.6-3-9.2-3.3 8.4-2.4 16.3 2.4 6.2-5.8-8.6-.9-14.6-.6-16.7 1.7-.4-7.4 1.6-10.1 10.3-9.4 2.3 3.5 5.8 6 9.8 7.2 1 2.6 9.2 5.7 2.9 7.8-3 .8-1.8-.9.4 2.2 10.7-5.4-4.8-10.2-8.4-14.7 2.5-1 4.4-1.2 5.3-.4v.4c-.1 1.2.7 2.2 1.9 2.3s2.2-.7 2.3-1.9c0-.1 0-.3 0-.4 0-.2 0-.5-.1-.7l4.1-.3-.9 4.1 2.4-3.8 2.7-1c-7.6-1.4-15.1-2.7-18.4.1-3.4-2-2.9-4.5 1.9-5.8 7.5-1.6 20.5 2.6 33.9-1.4-1.4 6.1-2.7 9.3-12.1 8.2 22.5 15.4 20.8 37.6 32.7 55.3 11.5 8.2 24.5 3.4 27.5-10.2 2.6-12.1-4.9-23.1 10.7-33.5 9.3-4.6 18.5-9.4 27.3-14.6 6.6-4.8 7-3.9 5.4.9-2.8 7.9-10.6 14-21.6 19.5 5-1.6 9.6-3 13.2-5 12.6-1.6 17.6-9.5 13.9 2.1-5.4 6.3-14.5 10.5-25.7 13.4 23.4-5.3 20.1 9.1-3.7 8.6l10.9.2c8.5 1.6 6 12.3-6.3 10.2 10.9 3.4 6 13.6-9.5 8.1 7.5 6 1.1 13.3-6.6 8.4-.1 9-3.9 11.3-11.3 6.8-1.2 8.1-6.4 10.3-12.3 3.9-.8 3.6-3.9 5.7-8.5 7.4 1.3.2 3 .5 4.3-.2 2.3 13.9-6.5 17.8-11.9 11.4-1.5 10.5-.9 17 1 20.8-.7-7.3-.5-13.1 1.2-16.5 1.6 1.5 3.2.9 4.9.8 6.9 35.3-11.2 40.1-16 8.8 8.3-16.9 15.2-41.8 8-52 1.8 9.2.9 16.4-2.5 21.4-2.5-1.2-4-4.4-4.5-9.5-1.7 2.4-1 6.1 2.1 10.9 1.1 5.6-.5 19.5-4.3 16.2-1.3-5.2-4.4-7.4-3.9-15.8-2.9 5.1.2 11.3 2.3 15.8-1.4 6.3-1.9 12.8-1.2 19.3-6.5-2.9-7.9-6.6-7.3-13-1.1 6.2-3.5 12.2-7 17.4l4.9-5.6 3.9-.6.4.2 5.4 4.7c4.8 10.4.4 18.1 9 30.2 1.8 3.8.9 4.9-2.5 3.5-3.9-1.7-6.9-5-8-9.1-.5 5.6-2 10.3-5.6 12.8-3.8-9.3-5.3-19.4-4.1-29.4-3.6 14.4-7.7 25.1-12.8 27.6-.9-21.5 3.6-18.6 4.3-36.4-2.4 8.8-5.7 15.5-10.7 17.5l1.6-11.1c-2.1 4.8-3.5 9.8-4.1 15 3.4-1.5 6.5-3.7 9-6.4-6.4 15.2-15.5 29.1-27.1 40.9.3-7.3 1.6-13.8 5.1-18.5.6 1.6 2.3 2.6 5.1 3.1-1.2-17 7.8-31.5 2.9-43.4-.6 19.5-5.4 22.7-7 38.7-5.2-2.2-5.4-8.7-3.3-17.1-4.1 9.5-8.7 14.8-12.8 16 4.6-18.9 1.2-21.3 6.6-28.8l-8.8 10.5c-1.9-.8-5.7 2.1-9.7 5.4-2.1.9-2.7-.8-2.3-1.5 7.3-7.7 14.6-18.5 22-23.2-4.8.4-17.7 12.6-25.5 24.5-8.6 6.8-17.2 13.2-25.9 19.5l18.8-11.9c8.4-5.3 8.9-.8-1 8.4 5.5-.4 8.6.2 5.3 3.5-7.5 9.3-15.5 18.1-24.1 26.5 6.5-5.2 12.7-10.7 18.5-16.7 4-1 4.7-1 4.5 3.3-6.4 6.9-13.1 13.4-20.2 19.5-10.3 9.4-22.5-1.2-1-17.3l16-16-4.1.2c-18.4 16.1-28.9 14.4-24.5 2.5 25.7-19.7 48.2-39.5 67-60.8-19.9 20.7-44.7 39-69.1 56.7-6.6 13 .7 20.7 15.7 12.5-20.1 13.2-24.5 38.3 1.2 24.7l.6 8.4c-10.1 2.5-19.7 9.5-29.1 19.8 13.6.7 23.8 9 35.2 20 26.6-14.3 64.6-6 94.7-2.9 41.1 4.4 64.8-8.4 73-37.2 3.3-13.8-10.8-25-1.4-40.5 53.3-3.9 78.2-29.7 79.3-73.4zm-14.4 40.6c7.8-25.8 0-44.8-28.7-65.8 6.3-5.1 7.5-11.6 4-10.9-3.2.7-3.1-1.9-5.2-3.3 8.6.3 15.5-1.3 20.8-6.6 24.9 24.7 26.7 56.8 9.1 86.6zm-66-188.8c16-7.5 24.5-5.6 31.2 4.9 3.2 4.4 7.1 8.2 11.6 11.4-19-2-18.3 2.4-39.4 10.4-25.3 6.2-27.4-16.4-10.7-25.9 1.9.7 4.3.4 7.3-.8zm-7.8-1.4c-9.7 5.6-16 16.8-14.3 26.9l-17.5-13.5c-2.8-2.7-7.2-6.6-4.1-11.1 2.7-4.8 5.5-9.4 7.9-14.2 8.1-3.1 15.5-4.9 22.2-5.2 9.9 3.8 11.4 7.8 5.8 17.1zm-147-38.9c15.5-5.8 33.5 6.4 60.4 4.6 37.9-1.3 32.9-6.3 53.5-6 15.1 6.4 21.8 15.7 33.4 21.4-26.6-.1-49.3 14.1-87.4 12.8-40.6-1.5-79.3-14.5-88.8-12.5 3-4.3 20.5-12.2 28.9-20.3zm-24.7 23.6c10.5-2.1 21.5 1.3 31 9.8 4.4 4.9 3.7 10.6-1.2 16.8l-14.3 15c1.7-6.3-1.1-13-8.5-16.1-4.6-3-8.3-5.2-12.1-8.6s-5.4-14.8 5.1-16.9zm-34.5 17.8c6.4-8.3 19.3.9 28.9 1.3 16.2 8.9 23.9 18.5 10.5 26.3-18.9 6.1-40.6-17.7-59.6-5.9zm-3.6 186.3c22.4 33.8 1.7 32.3-5.8 44.5-3.9-23.9-34.6-31.5-19.2-73.9 5.4 12.1 16.8 16.7 25 29.4zm-8-71.2c-.9 2.2-.9 4.6-.2 6.8-24.7 26-29.2 38.2-22.5 68.9-25-39.5-17.5-59.9 8.3-95.6l9.7.2c.9 4-6.6 1.5-9.3 4.5-5.4 8.2 2.5 11.2 17.2 10.5.5 2.4-2.4 2.6-3.2 4.7zm29.4 19 18.4-12.6c1.7.6-1.2 3.1.6 6.8-4.7 3.7-9.7 7-14.9 9.9 5.9-2.3 10.2-5.6 15.8-8.7 0 1.5 3.1 1.9 5.8 1.7-4.4 5.1-7.3 7.7-16.8 11.8-13.8 6-18.2-1-8.9-8.9zm20.8 22.5c-12.9 7.8-19.6 2.3-9.4-9.4l16.9-15.9c-1.1 3.7-.2 3.4.2 7.4-1.6 1.6-4.2 6.8-10.4 10.2 5.9-2.3 8.7-6.2 11.9-9.5 0 1.6 5.2.3 8 .1-4.4 5.1-11.2 13.5-17.2 17.1zm16.7 7c-12.9 7.8-18 2-10.7-7.1l13.5-16.7c-1 3.1.8 5.1 1.9 6.6-.4 1.4-2.6 5.1-7.9 9.3 5.8-2.8 5.9-4.6 9.1-7.9.9.5 5.3-.1 7.6.3-4.4 5-7.5 11.8-13.5 15.5zm13-33.9c-1.9 2.4-2.3 8.1 3.6 10-5.2 8.6-14.8 2.9-10.9-4.1 1.1-2.8 4.6-7 7.3-5.9zm-7.1 2.2c-11.2 12-19.3.2-6.8-5.3.8 3.1 2.6 3.8 6.8 5.3zm-4.1-13.3c-9.8 19.6-29.4 5.8-11-.5 1.2 1.7 7.1.9 11 .5zm-23.5-9.2c2 2.5 11.3-.1 14.2-1.5-1.6 3.3-2.6 5.5-2.1 8.2-4.2 3.6-22.1 1.8-12.1-6.7zm-5.1 7.2c-5.9 4.5-6.6 5.1-12.8 8.5 5.9-2.3 8.1-3.6 13.7-6.8 0 1.6 3.1 2 4.2 2.9-7.7 5.1-8.5 6.9-18.4 9.8-14 3.5-16.2-5.1-5.9-9.3l21.7-13.1c2.3.6-4.1 3.3-2.5 8zm-4-19.3c2.2.6 4.4.9 6.6 1-5.8 4.3-11.8 8.1-18.2 11.4 5.9-2.3 11.7-5 17.3-8-.5 1.6-.3 3.3.6 4.7-9.9 4.8-19.5 9.2-29.4 12.1-11.5 3.8-14.1-4-3.8-8.2zm-21.3-19c2.7 1.6 5.7 2.8 8.8 3.4-11.4 2.4-23.1 3.6-34.8 3.6 12.6.4 25.2-.4 37.7-2.4l11 1.2c-5.4 2.8-9.7 5.7-8.5 8.8-6.7 2.9-13.7 5.4-20.7 7.4 7.4-1.7 14.7-3.9 21.8-6.6 1.1 1.2 2.5 2 4 2.5-17.1 9.3-39.3 15.8-47 7.9-1.5-1.5.1-3.2 2.8-3.7 12.1-3 24.7-7.8 37.3-12.9-26.8 8.5-55 6.2-59.3-5.3-1.2-3.3-.4-4.5 2.7-3.6 14.7.6 29.4.4 44-.5zm4.7-11c-4.9-.4-6.9-.6-9.6 3.7-8.9-.8-18.6-2.1-27.5-3.8 8.9 2.2 17.8 4 26.8 5.2.8 1.7 2.1 3.2 3.7 4.1-20.7.1-34-2.4-41.1-6.5-11.1-6.5-10.3-16.5-1.4-11.7 12.7 3.2 23.3 4.4 34.8 5.5-9.1-2.5-21.3-7.3-28.2-14.2-8.9-8.9-7.3-18 1.2-11.3l32.9 16.2c0 1.9.4 3.7 1.2 5.4-8.1-2.4-16-5.7-23.4-9.7 7.7 5.4 16.3 9.3 25.4 11.6 1.2 2.2 3 4.1 5.2 5.5zm4.9-13.8c-6.1-.9-8-6.9-12.4-1.1-7.7-3.2-15.1-6.9-22.2-11.3-3.5-15.5 9.5-21.4 21.1-18.9 3.5 12.8 14.4 19.4 13.5 31.3zm183.4 19.6c-10.1 7.3-15 13.6-12.4 24.7 4.5 23-17.6 30-24.5 10.6-3.9-17.8-12.3-31.6-24.3-43.3 4.2-1.2 6.3-5.6 6.4-13.3-10.7 2.1-21.6 2.6-32.4 1.3-5.3-.8-8.7.7-10.2 4.3-12-.1-14 8.1-10 15.5 3.4-4.6 12.6-3.9 18-3.9 1.6 1.7 2 2.5 1.2 2.4-3.9-.4-7.9.4-11.4 2.3 3.8.1 7.6 1.1 10.9 3 20.4 25-18.4 58.1-27.9 22.3-6.2-32.7-37.1-30.6-63.8-43.3.3-11.8-9.6-21.6-12.2-32.4 13.9.7 33.1 18.7 54.6-5.4 12.8-14.4 20.5-12.9 6.3-31 38.7 10.9 71.8 10.6 107.8-.4.7 5.1-3.2 8.4-4.3 12.6-6.7 14 19.1 20.7 28.8 30.4 13.9 9.4 29.4-8.7 37.4-7.6-6.7 11.1-9.5 22.3-10.4 35-8.3 6-18.5 10.8-27.6 16.2zm29.4-17.7c2.5-12.7 9-26.4 15.7-36.2 11.6-5.3 23.5 6.2 15.1 21.8l-18.7 10.2c-2.8-3.8-6.5-.5-12.1 4.2zm3.4 44.5c6.9 1 14.8.1 22.7-.7-9.4.2-18.2-.3-23.6-1.6 2.6-3.1 3.3-6.2-.6-10l36-5.8-30.7 2.6c5.1-3.7 7.1-6.6 8.1-9.9 8.4-2.1 16.2-5.8 24.1-9.9-7.7 3-15.6 5.5-23.6 7.6.1-5.7-.6-6.5-5-4.5-8.8 3.2-8.9.9-.6-6.8 11.3-3.4 20.4-10 29.2-17.1-8.9 6-18.4 11-28.4 14.8.9-1.6 1.1-3.5.6-5.2 8.7-5 19.7-9.2 26.1-14.4 11.5-9.1 16.1-9.6 11.6 4.5-6.4 8-18 14.7-30.4 21.2 10.4-1.9 19.8-3.3 24.6-6 11.2-6.2 18.4-1.6 2.8 9.5-5 3.5-15.3 7.8-26.7 10.7 11.1-2.7 19.3-3.4 24.9-4.7 17.8-4 14 4.1.4 11.6-8.1 4.4-22 5.4-34.7 6.4l24.8.1c28.5.1-1 17.7-33.5 11.8-3.2-4.2-3.7-6.4 1.9-4.2zm10.4 16.1c-7.2-2.6-11.6-3.2-16.1-5.4 2.1-.3 3.1-3.1 3.3-4.7 44.3 4.3 22.5 22.3-5.8 11 .5-1.8.3-3.8-.3-5.5 2.4 1.3 11 3.6 18.9 4.6zm-19.4 2.9c39.5 7.3 25.5 22.3-2.7 11 .7-2 .3-3.1-1-5.1 2.4 1.2 6.6 2.2 14.5 3.2-7.2-2.6-12.3-2.9-16.1-6.6 2-.1 3.9-1 5.3-2.5zm-31.6 33.5c1.6 1.1 3.7 1.2 5.5.4 20 28 1.6 33.6-12.5 4.4 2.1-1.2 3.4-3.5 3.5-5.9l2.3 1c1 6.8 6.8 11.6 10.3 17.2-3.8-6.7-6.8-8.3-9.1-17.1zm6.6 0c1.5-1.6 3.1-4.4 2.5-6.5l1.8-.1c4.6 5.1 5.8 4.9 11.8 7.6-6.8-3.6-7.7-4.6-10.5-9 2.5-.5 4.2-.1 5.4-1.7 23.3 12.2 10.5 26.1-11 9.7zm12.3-11.5c.7-2.1.9-4.3.6-6.4 2.4 1.2 5.3 3.6 12.9 5.9-6.8-3.6-6.4-2.9-10.2-6.6 1.8.5 5.2-.5 6.4-2 22.5 7.7 15.7 19.3-9.7 9.1zm.1-20.5c2.1-.9 4.9 2.4 5.8 4.6 3 5.4-4.5 9.8-8.5 3.1 2.6-.6 4.2-3.2 3.6-5.8-.2-.7-.5-1.3-.9-1.9zm-9.2 7.8c1.3 1 3 .4 4.7.6 9.2 9.4-6.5 19.6-9.6 7.9 1.9-.6 4-5.8 4.9-8.5zm-11.6 7c1.3.9 2.8 1.4 4.3 1.5 11 14.4-4.8 20-8.1 3.9 1.9-.6 3-2.7 3.8-5.4zm-13.1 4.5c2.1 1.4 4.7 2 7.2 1.6 8.3 15.4-8.7 18.4-9.9 6.4-4.1-6.3 1.8-5.3 2.7-8zm-4 15.2 2.4 1.5c-.3 7.2 2.6 13.5 5 20-2.4-7.9-4.4-15.4-3.9-20.3 2 1.7 4 2.6 6.1 2.4 11.7 33.5-4.2 36.4-14.4 1.8 2.4-.8 4.2-2.8 4.8-5.4zm-18.6 35.5c9.5 6.1 14.5 1.7 16.4-10 14.9 11.9 20.9 9.5 18-7.1 14.5 9.3 23 9.2 18.5-11.9 16.2 2.4 22.4-1.9 14.7-12.1 9.5.5 21.7-7.3 14.7-12.1 14.3-1.7 19-8.9 8.3-13.5 2.1.3 4 .5 5.5-.5 9.3 6.4 17.4 14.3 24.2 23.3-4.7 37.2-33.9 31.4-61.8 45.8-21.9 12.5-34 33-23.3 60.6-4.4-4.3-9.5-4.4-15.2-.5-10.5-2.5-15.8-10.6-18.8-21.4l8.1.7c-8.6-14.5-7.2-16.8-1.2-13.5-3.8-8.1-6.4-18.5-8.1-27.8zm-2.9 21.3c1.6 1.2 7.2 16.7 6.1 16.9-2.1-1.3-8.8-1.2-10.2-6.3.5-6.1 2.9-9.6 4.1-10.6zm-3.4 17.4c1.5 0 2.9.3 4.3 1l4.5 11.6c4.2 7.4 10.5 12.2 20 13.3 7.9-8.4 14.1 3 5 9.8.6-1.9.9-4-.6-5.3-4.2.8-8.5.8-12.7-.1-.7-5.2-3.5-6-7.2-4.7 8.5 1 3.9 13.1-1.7 13.2.4-3.8.6-5.7-2.2-5.2-2.2-3.7-3.5-3.5-4.4-1.7-5.1 1.2-9.7 1.7-11.7.5-3.6-1-5.8 3-5.6 7.3-6.9-3.5-6.1-15.3 1.4-13.6 10.4 2.5 16.3 1 15-5.8l-5.7-14.5c-.6-1.1-.8-2.4-.4-3.6.5-1.5 1.2-2.2 2-2.2zm-9-8.7c2.4-5.5 5.8-8.1 7.3-8.7 1 3.5-.4 9.4-1 14.4-1.9 3.6-1.9 6.9-3 8-1.6-1.9-3.7-8.4-3.3-13.7zm-1.6-6.4c.3 4.3-.2 8.6-1.6 12.8-2.5 3.3-4.3 6-5.6 6.9-1.2-2.2-1.2-6.5 0-11.6 3.3-5 5.7-7.7 7.2-8.1zm-9.6-2.2c3.3-5.1 5.9-8.6 7.4-9l-.7 9.4c-3 5.9-5.6 9.6-7.4 10.1-1.2-1.4-1-4.8.7-10.5zm-9.6 2.6.7 8.5c7-9.6 4.7-7.5 4.7 8.3 4.4-7 4.2-5.3 3.6 6.7 3.8-2.1 7.4-4.7 10.5-7.7l1.2 9.9c2.9-5.6 5.2-5.3 6.9.8 1.5 4.5 4 14.2-3.5 13.5-8-3.5-14.3-1.3-15.2 6.5l-19.9-.8c2.8-9.4-4.8-15-12.7-10.1-4.6.8-7 .3-7.2-1.9 11.2-10.4 21.5-21.7 30.9-33.7zm-32.5 32c-1-5.2-.6-10.7 1.3-15.7l7 5.8zm12-34.1c-2.6 5.6-4.8 11.1-5.8 17.8-3-.5-3.6-4.4-5.4-6.5 5.1-7.5 9.2-11.4 11.2-11.3zm-10.6.1c1.5.2 3-.6 4.5-1.7.7 4.2-6.9 12-12.4 16.8-5.8 1.4-5.5-1.9 3.7-12.2 1.9 0 3.5-1.1 4.2-2.9zm-7.9-15.4c3.1.2 6.1-1.3 7.8-3.9 1.1 7.5-9.8 18.7-19.1 18.5 3.3-5.1 7.1-10 11.3-14.6zm-13.7 26.7c3-3 5.4-6.6 7-10.5 4.3-1.6 8.3-3.9 11.8-6.9l-.6 5.6c-3.3 3.2-6.3 6.8-9 10.6-7.5 3.2-12 3.8-9.2 1.2zm-11.1 20.8 11.7-11.8c2.6-2.4 3.9-3 5.8-1.8-2.5 5.6-6 10.6-10.3 15 2.6-2.3 5-3.1 8.3-9 3.7-4.9 5-.4.4 9.4-5.7 4.4-10.4 6.2-12.5 2.2-1.1-1.3-10.1 1.4-3.4-4zm3.5 6.6c6 4.6 19-3.2 17.9-13.7 3.9-12.4 10.9-11.8 7.2-3.9-2.4 7.1-2.4 12.7 1.2 16.3 3.5 2.7 8.3 3.3 12.4 1.5 7.1-2.4 10.1 2.9 4.7 9.6s-4 4.9-4.5-2c-4.1-.8-7.7-1.4-12.5-.8.4-6.7-1.9-10-6.8-10 2.6 2.4 3.7 4.9 3.3 7.4s-2.4 5.2-5.6 7.7c-.1-2.8-1.5-3.9-2.4-4.4-2.4-3.1-3.1-.1-9.4-.4l-8.3-.3c-2.7.5-5.2 2.5-7.6 5.2.8-3.8-.3-15.9 10.4-12.2zm97 45.4c-45.9-4.5-87.9-11.8-105.2-.3-6-8.8-14.8-15.4-25-18.6 6.1-6.6 19.3-17.4 18.3-8.1 5.4-5.7 11.6-9.3 20.1-8.5 5.8-1.7 9.2-1 8.4 5.5 2.9.2 6.2-1.9 9.5-5.7 11.7-.8 14.5.2 14.4 7.4 3.4-.9 5.5-2.4 6.8-5.4l8.2-.2c2.2 3.3 12.6 1.3 18.7 1.6 0 4.2 3.3 6.5 8.5 7.6-1-4.4.8-8 6.9-7.9h11.3c1.9 1.3 2 3.2.5 5.6 4.7.3 9-.4 11.1-5.9 1.5.1 3-.4 4.1-1.5h7.3c.7 1.9.6 4-.3 5.8 5.3-1.4 9.8-4.7 12.8-9.3 11.5 16.1 1.1 40.7-36.4 37.9zm61.3-33.5c-3.5 12.5-12 21.6-24.1 27.9 12.4-20.1 3.5-28.2 1.2-44.2-2.1-15.6 6.1-23.3 20.1-26.7-8.8 18.9 5.1 24.6 2.8 43zm-28.1-29.9c0-22.8 20-40.3 46.6-44.6s41-17.6 44.9-37.1c8.8 21.6.2 40.5-17 54.8-42 20.4-55.1 1.5-74.5 26.9z"/><path d="m202.3 258.5c1.4-1.7 2.8-3.6 4.2-5.6z"/><path d="m156.5 176.1c20.1 9.7 14.6 46.9 48.1 48-33.8-10.2-21.2-41.2-48.1-48z"/><path d="m229.9 267.9c-4.2 2.6-9.8 5.9-9.1 9.8 2.3-5.8 5.5-4.6 9.1-9.8z"/><path d="m233.3 275.5c-4.2 2.6-9.8 5.9-9.1 9.8 2.3-5.8 5.5-4.6 9.1-9.8z"/><path d="m215.2 262.5c-8.8 9.5-12.6 11.8-7.5 1.4-10.6 11.3-2.5 14.1 7.5-1.4z"/><path d="m222.5 240.2c-6.6 11.7-15.7 17.6-10.3 4.9-12.8 11.9 5.3 13.5 10.3-4.9z"/><path d="m240.7 195.8c.2 5.8 5.3 6.5 8.1 10.5-2.1-5 1.7-11.7-2.6-17 1 5.9-1 7.8 0 12.3-1.9-1.9-1.7.6-5.5-5.8z"/><path d="m252 197.4c.9 3.5 4.1 3.2 6.4 5.2-2-2.8-.6-7.3-4-9.9 1.5 3.4.5 4.9 1.8 7.4-1.5-.9-1.1.6-4.2-2.7z"/><path d="m257.7 215.1c.2 5.8 3.1 5.7 6.3 9.7-2.1-5.1 3.5-10.9-.8-16.2 1 5.9-1.6 8.2-.6 12.7-2.1-1.2-3.4-3.2-4.9-6.2z"/><path d="m246.9 216.7c.2 5.8.9 6.1 4 10.1-.7-11.3 10.2-16 .6-25.5 3.9 7.2-1.1 18.4-2 22-1.9-1.3-1-3.6-2.6-6.6z"/><path d="m231.4 217.1c1.4.2 2.8-.3 3.8-1.3 1.4 2.9-3.2 11 .4 14.4 7.6-3.7 11.8-9 8.7-23.4-1.6-.8-2.2-.3-1.8 1.5 2.1 9.9-.8 17-6.2 20.1-2.3-1.7 2.2-13.8.8-18-.8-1.3-2-1-1.6.7.3 1.9-1.9 4.4-4.1 6z"/><path d="m224.5 248.8c7.7-1.5 13.5-4.9 16.7-18.6-1.1-1.3-1.9-1.1-2.2.7-1.6 9.9-7 15.5-13.1 16.4-1.5-2.4 4.7-13 4.8-17.4-.2-1.5-1.3-1.8-1.6-.1-.4 1.9-1.9 3.3-4.6 3.9 1.4.6 4.9-1.2 3.6 1.4.2 3.3-5.7 9.3-3.6 13.7z"/><path d="m257.8 223.1c-1.5-1.3-2.3-.9-2.4 1.2-.1 11.4-5.2 18.6-11.9 20.6-2.1-2.5 3-15.4 2.5-20.3-.5-1.6-2.1-1.8-1.8.1 1.2 8.2-3.7 16.2-1.9 22.1 8.2-3 14.2-7.9 15.5-23.7z"/><path d="m235.9 272.8c4.3-9 16.1-16.3 14.4-27.6-3.7 14.7-9.1 15.9-13.7 23.7-2.2-1.5-.5-7.3 2-14.1-4.5 4.4-6.6 9.8-2.7 18z"/><path d="m218.4 269c4.3-5 20.8-10.2 19.1-21.5-8.5 16.6-13.4 13.1-18.2 18.7.4-2.3 2.5-10.4 7.1-15.9-4.8 1.5-11.3 11.5-8 18.7z"/><path d="m137 413.4 1.9 1.1 1.9.7c-.3 3.1-.5 6-.6 8.8-.1 1.9-.3 4.7-.5 8.6-.2 2.9-.3 5.9-.5 8.8l.4.2c1.7-1.4 3.9-3.3 6.3-5.6 2-1.8 4.2-3.9 6.5-6.3l6.2-6.2 1.2.7 1.6.5c-4 3.3-7.9 6.8-11.7 10.3-3.9 3.5-7.7 7.2-11.6 10.9l-.7-.5-.8-.2c0-3.4 0-6.9.1-10.6s.1-7.3.3-10.9c-.1-4.3 0-7.8 0-10.3"/><path d="m159.1 440.3 8.8 3-1-11.8zm-12 9.9 22.1-23.8 1 .3 2.3 32.2-2.3-1-1.9-.5c0-4-.2-8.1-.5-12.3l-10.1-3.5c-1.2 1.4-2.1 2.6-3 3.5-2.2 2.6-3.8 4.6-4.8 6l-1.4-.7z"/><path d="m183.9 444.8c.3.1.7.2 1 .3l1 .2c3.3.7 5.8.4 7.6-.9 1.2-.8 2.1-2.2 2.4-3.6.4-1.7-.1-3.6-1.5-4.7s-3.1-1.8-4.9-2.1l-3.3-.6zm-6.7 14.8 5.5-28.5 9.1 1.8c3.1.6 5.3 1.6 6.5 2.9 1.2 1.4 1.7 3.4 1.2 5.2-.4 2.4-2.1 4.3-4.3 5.2-1.8.8-3.8 1.1-5.8 1l8.6 16.5-2.8-.7-1.9-.2c-1.2-2.7-2.5-5.4-3.9-8.1-1.7-3.4-3.1-6.1-4.2-8l-1.6-.3-2.7 14-1.8-.5z"/><path d="m203.6 442.5c.1-2.5 1.5-4.7 3.7-5.9 1.9-1 4.1-1.4 6.3-1.1 1.2.1 2.4.4 3.5.9.9.4 1.8 1 2.5 1.7-.3.5-.6 1.1-.8 1.7-.3.7-.6 1.3-.7 1.7h-.4c-.3-1.2-.9-2.2-1.9-3-.9-.7-1.9-1.1-3.1-1.2-1.4-.2-2.8.2-3.9 1.1-1.1.8-1.7 2-1.8 3.3s.2 2.6 1 3.7c.7.8 1.5 1.5 2.5 2l4.2 2.2c1.3.6 2.5 1.6 3.4 2.8.8 1.4 1.2 3 .9 4.6-.2 2.4-1.4 4.6-3.3 6-2.3 1.8-5.2 2.6-8.1 2.2-1.3-.1-2.5-.4-3.7-1-1.1-.5-2-1.2-2.8-2 .2-.5.4-1 .6-1.5.2-.7.4-1.4.5-2.2h.4c.7 1.6 1.8 2.9 3.2 3.9.9.5 1.9.9 2.9 1 3.4.3 6.3-2.1 6.7-5.5.1-1.1-.1-2.3-.7-3.2-.7-1.1-1.7-2-2.9-2.6l-4-2.1c-1.7-.7-3.1-2.1-3.8-3.8-.4-1.2-.6-2.4-.4-3.7"/><path d="m225.7 451.9c.1 4.2 1.3 7.5 3.6 9.8 4.7 4.4 12 4.2 16.4-.5l.2-.2c2.3-2.7 3.5-6.2 3.2-9.7v-1.1c-.1-4.1-1.3-7.2-3.5-9.5-2.2-2.2-5.3-3.4-8.5-3.1-3.6-.1-7 1.6-9 4.6-1.9 2.9-2.8 6.3-2.4 9.7m-4.3 0c-.2-3.9 1.1-7.7 3.7-10.7 2.8-3.2 6.9-5 11.1-5h.3c5.3-.2 9.4 1.2 12.4 4.1 2.6 2.6 4.1 6.1 4.1 9.8.3 4.3-1.2 8.6-4.3 11.7-3 2.9-7 4.5-11.1 4.5h-.2c-3.8.3-7.5-.8-10.6-2.9-3.4-2.5-5.2-6.4-5.4-11.5z"/><path d="m250.8 436.9 2.1-.3 1.9-.5c1.6 2.7 3.2 5.2 4.7 7.5 1 1.6 2.5 4 4.6 7.2 1.6 2.5 3.2 4.9 4.8 7.4l.4-.1c.6-2.2 1.2-4.9 1.9-8.3.5-2.6 1-5.6 1.6-8.9.5-2.9 1-5.8 1.4-8.7l1.4-.1 1.6-.5c-1.2 5-2.4 10.1-3.4 15.2-1.1 5.1-2.1 10.3-3 15.6h-.9l-.8.3c-2-2.7-4-5.6-6.1-8.6s-4.1-6-6.2-8.9c-2.6-3.4-4.5-6.3-6-8.3"/><path d="m280.2 431.4 1.8-.3 1.8-.6 7.1 28.2-1.9.3-1.7.5z"/><path d="m298.4 442.5 8.7-3.2-8.1-8.5zm-3.1 15.3 2.2-32.4 1-.3 22.1 23.5-2.4.7-1.8.9c-2.5-3.1-5.2-6.2-8.2-9.3l-10.1 3.7c0 1.8-.1 3.4-.1 4.5-.1 3.4-.1 6 .1 7.7l-1.5.4z"/><path d="m324.6 446.9-12.2-26.2 13.6-6.3.5 1.4.6 1c-1.2.3-2.3.7-3.5 1.1-1.3.5-2.5 1-3.6 1.5l-3.4 1.6 4.5 9.6 6-2.8c.3-.1.8-.4 1.5-.8s1.3-.8 1.7-1l.4 1.1.6 1-3.5 1.4-6 2.8 5.2 11.2.9-.3c1.4-.7 3.1-1.5 5-2.5 1.5-.8 2.9-1.6 4.3-2.5l.3 1.1.7 1.2z"/><path d="m101.7 406.1c2 0 3.7 1.6 3.7 3.7s-1.6 3.7-3.7 3.7-3.7-1.6-3.7-3.7 1.7-3.7 3.7-3.7z"/><path d="m359 407.6c2 0 3.7 1.6 3.7 3.7s-1.6 3.7-3.7 3.7-3.7-1.6-3.7-3.7 1.7-3.7 3.7-3.7z"/><path d="m439.6 323.7 2.4 5.1c.1.3.2.5.3.8v.5c-.1.2-.3.4-.5.5-.3.1-.5.1-.8 0-.2 0-.3-.2-.4-.3-.1-.2-.2-.4-.2-.7l-1.1-5.1z"/></g></svg>