<?xml version="1.0" encoding="UTF-8" standalone="no"?>
<!DOCTYPE svg PUBLIC "-//W3C//DTD SVG 1.1//EN" "http://www.w3.org/Graphics/SVG/1.1/DTD/svg11.dtd">
<svg width="100%" height="100%" viewBox="0 0 626 1378" version="1.1" xmlns="http://www.w3.org/2000/svg" xmlns:xlink="http://www.w3.org/1999/xlink" xml:space="preserve" xmlns:serif="http://www.serif.com/" style="fill-rule:evenodd;clip-rule:evenodd;">
    <g>
        <g transform="matrix(1,0,0,1,151.75,29.4023)">
            <text x="0px" y="0px" style="font-family:'LucidaGrande', 'Lucida Grande', sans-serif;font-weight:500;font-size:18px;">SSPX-Vatican Relations (1970-2026)</text>
        </g>
        <path d="M30,75.688L30,1335.11" style="fill:none;fill-rule:nonzero;stroke:rgb(168,0,54);stroke-width:1px;stroke-dasharray:5,5;"/>
        <path d="M270.5,75.688L270.5,1335.11" style="fill:none;fill-rule:nonzero;stroke:rgb(168,0,54);stroke-width:1px;stroke-dasharray:5,5;"/>
        <path d="M429,75.688L429,1335.11" style="fill:none;fill-rule:nonzero;stroke:rgb(168,0,54);stroke-width:1px;stroke-dasharray:5,5;"/>
        <rect x="5" y="40.199" width="47" height="30.488" style="fill:rgb(254,254,206);stroke:rgb(168,0,54);stroke-width:1.5px;"/>
        <g transform="matrix(1,0,0,1,12,60.7344)">
            <text x="0px" y="0px" style="font-family:'LucidaGrande', 'Lucida Grande', sans-serif;font-weight:500;font-size:14px;">SSPX</text>
        </g>
        <rect x="5" y="1334.11" width="47" height="30.488" style="fill:rgb(254,254,206);stroke:rgb(168,0,54);stroke-width:1.5px;"/>
        <g transform="matrix(1,0,0,1,12,1354.64)">
            <text x="0px" y="0px" style="font-family:'LucidaGrande', 'Lucida Grande', sans-serif;font-weight:500;font-size:14px;">SSPX</text>
        </g>
        <rect x="236.5" y="40.199" width="64" height="30.488" style="fill:rgb(254,254,206);stroke:rgb(168,0,54);stroke-width:1.5px;"/>
        <g transform="matrix(1,0,0,1,243.5,60.7344)">
            <text x="0px" y="0px" style="font-family:'LucidaGrande', 'Lucida Grande', sans-serif;font-weight:500;font-size:14px;">Vatican</text>
        </g>
        <rect x="236.5" y="1334.11" width="64" height="30.488" style="fill:rgb(254,254,206);stroke:rgb(168,0,54);stroke-width:1.5px;"/>
        <g transform="matrix(1,0,0,1,243.5,1354.64)">
            <text x="0px" y="0px" style="font-family:'LucidaGrande', 'Lucida Grande', sans-serif;font-weight:500;font-size:14px;">Vatican</text>
        </g>
        <rect x="400" y="40.199" width="55" height="30.488" style="fill:rgb(254,254,206);stroke:rgb(168,0,54);stroke-width:1.5px;"/>
        <g transform="matrix(1,0,0,1,407,60.7344)">
            <text x="0px" y="0px" style="font-family:'LucidaGrande', 'Lucida Grande', sans-serif;font-weight:500;font-size:14px;">Popes</text>
        </g>
        <rect x="400" y="1334.11" width="55" height="30.488" style="fill:rgb(254,254,206);stroke:rgb(168,0,54);stroke-width:1.5px;"/>
        <g transform="matrix(1,0,0,1,407,1354.64)">
            <text x="0px" y="0px" style="font-family:'LucidaGrande', 'Lucida Grande', sans-serif;font-weight:500;font-size:14px;">Popes</text>
        </g>
        <rect x="0" y="106.343" width="619.5" height="3" style="fill:rgb(238,238,238);stroke:rgb(238,238,238);stroke-width:1px;"/>
        <path d="M0,106.343L619.5,106.343" style="fill:none;fill-rule:nonzero;stroke:black;stroke-width:1px;"/>
        <path d="M0,109.343L619.5,109.343" style="fill:none;fill-rule:nonzero;stroke:black;stroke-width:1px;"/>
        <rect x="241.25" y="95.688" width="137" height="23.311" style="fill:rgb(238,238,238);stroke:black;stroke-width:2px;"/>
        <g transform="matrix(1,0,0,1,247.25,112.256)">
            <text x="0px" y="0px" style="font-family:'LucidaGrande-Bold', 'Lucida Grande', sans-serif;font-weight:600;font-size:13px;">1970: Foundation</text>
        </g>
        <path d="M258.5,146.309L268.5,150.309L258.5,154.309L262.5,150.309L258.5,146.309Z" style="fill:rgb(168,0,54);fill-rule:nonzero;stroke:rgb(168,0,54);stroke-width:1px;"/>
        <path d="M30.5,150.309L264.5,150.309" style="fill:none;fill-rule:nonzero;stroke:rgb(168,0,54);stroke-width:1px;"/>
        <g transform="matrix(1,0,0,1,37.5,145.566)">
            <text x="0px" y="0px" style="font-family:'LucidaGrande', 'Lucida Grande', sans-serif;font-weight:500;font-size:13px;">Founded by Abp. Lefebvre</text>
        </g>
        <path d="M41.5,175.619L31.5,179.619L41.5,183.619L37.5,179.619L41.5,175.619Z" style="fill:rgb(168,0,54);fill-rule:nonzero;stroke:rgb(168,0,54);stroke-width:1px;"/>
        <path d="M35.5,179.619L269.5,179.619" style="fill:none;fill-rule:nonzero;stroke:rgb(168,0,54);stroke-width:1px;"/>
        <g transform="matrix(1,0,0,1,47.5,174.877)">
            <text x="0px" y="0px" style="font-family:'LucidaGrande', 'Lucida Grande', sans-serif;font-weight:500;font-size:13px;">Approved</text>
        </g>
        <rect x="0" y="208.274" width="619.5" height="3" style="fill:rgb(238,238,238);stroke:rgb(238,238,238);stroke-width:1px;"/>
        <path d="M0,208.274L619.5,208.274" style="fill:none;fill-rule:nonzero;stroke:black;stroke-width:1px;"/>
        <path d="M0,211.274L619.5,211.274" style="fill:none;fill-rule:nonzero;stroke:black;stroke-width:1px;"/>
        <rect x="215.75" y="197.619" width="188" height="23.31" style="fill:rgb(238,238,238);stroke:black;stroke-width:2px;"/>
        <g transform="matrix(1,0,0,1,221.75,214.188)">
            <text x="0px" y="0px" style="font-family:'LucidaGrande-Bold', 'Lucida Grande', sans-serif;font-weight:600;font-size:13px;">1975-1976: Suppression</text>
        </g>
        <path d="M41.5,248.24L31.5,252.24L41.5,256.24L37.5,252.24L41.5,248.24Z" style="fill:rgb(168,0,54);fill-rule:nonzero;stroke:rgb(168,0,54);stroke-width:1px;"/>
        <path d="M35.5,252.24L269.5,252.24" style="fill:none;fill-rule:nonzero;stroke:rgb(168,0,54);stroke-width:1px;"/>
        <g transform="matrix(1,0,0,1,47.5,247.498)">
            <text x="0px" y="0px" style="font-family:'LucidaGrande', 'Lucida Grande', sans-serif;font-weight:500;font-size:13px;">Suppressed</text>
        </g>
        <path d="M258.5,277.551L268.5,281.551L258.5,285.551L262.5,281.551L258.5,277.551Z" style="fill:rgb(168,0,54);fill-rule:nonzero;stroke:rgb(168,0,54);stroke-width:1px;"/>
        <path d="M30.5,281.551L264.5,281.551" style="fill:none;fill-rule:nonzero;stroke:rgb(168,0,54);stroke-width:1px;"/>
        <g transform="matrix(1,0,0,1,37.5,276.809)">
            <text x="0px" y="0px" style="font-family:'LucidaGrande', 'Lucida Grande', sans-serif;font-weight:500;font-size:13px;">Refuses to dissolve</text>
        </g>
        <path d="M41.5,306.861L31.5,310.861L41.5,314.861L37.5,310.861L41.5,306.861Z" style="fill:rgb(168,0,54);fill-rule:nonzero;stroke:rgb(168,0,54);stroke-width:1px;"/>
        <path d="M35.5,310.861L269.5,310.861" style="fill:none;fill-rule:nonzero;stroke:rgb(168,0,54);stroke-width:1px;"/>
        <g transform="matrix(1,0,0,1,47.5,306.119)">
            <text x="0px" y="0px" style="font-family:'LucidaGrande', 'Lucida Grande', sans-serif;font-weight:500;font-size:13px;">Lefebvre suspended</text>
        </g>
        <rect x="0" y="339.517" width="619.5" height="3" style="fill:rgb(238,238,238);stroke:rgb(238,238,238);stroke-width:1px;"/>
        <path d="M0,339.517L619.5,339.517" style="fill:none;fill-rule:nonzero;stroke:black;stroke-width:1px;"/>
        <path d="M0,342.517L619.5,342.517" style="fill:none;fill-rule:nonzero;stroke:black;stroke-width:1px;"/>
        <rect x="245.25" y="328.861" width="129" height="23.31" style="fill:rgb(238,238,238);stroke:black;stroke-width:2px;"/>
        <g transform="matrix(1,0,0,1,251.25,345.43)">
            <text x="0px" y="0px" style="font-family:'LucidaGrande-Bold', 'Lucida Grande', sans-serif;font-weight:600;font-size:13px;">1988: The Break</text>
        </g>
        <path d="M258.5,394.793L268.5,398.793L258.5,402.793L262.5,398.793L258.5,394.793Z" style="fill:rgb(168,0,54);fill-rule:nonzero;stroke:rgb(168,0,54);stroke-width:1px;"/>
        <path d="M30.5,398.793L264.5,398.793" style="fill:none;fill-rule:nonzero;stroke:rgb(168,0,54);stroke-width:1px;"/>
        <g transform="matrix(1,0,0,1,37.5,378.74)">
            <text x="0px" y="0px" style="font-family:'LucidaGrande', 'Lucida Grande', sans-serif;font-weight:500;font-size:13px;">Lefebvre consecrates</text>
        </g>
        <g transform="matrix(1,0,0,1,37.5,394.051)">
            <text x="0px" y="0px" style="font-family:'LucidaGrande', 'Lucida Grande', sans-serif;font-weight:500;font-size:13px;">4 bishops without permission</text>
        </g>
        <path d="M41.5,444.414L31.5,448.414L41.5,452.414L37.5,448.414L41.5,444.414Z" style="fill:rgb(168,0,54);fill-rule:nonzero;stroke:rgb(168,0,54);stroke-width:1px;"/>
        <path d="M35.5,448.414L269.5,448.414" style="fill:none;fill-rule:nonzero;stroke:rgb(168,0,54);stroke-width:1px;"/>
        <g transform="matrix(1,0,0,1,47.5,428.361)">
            <text x="0px" y="0px" style="font-family:'LucidaGrande', 'Lucida Grande', sans-serif;font-weight:500;font-size:13px;">Automatic excommunication</text>
        </g>
        <g transform="matrix(1,0,0,1,47.5,443.672)">
            <text x="0px" y="0px" style="font-family:'LucidaGrande', 'Lucida Grande', sans-serif;font-weight:500;font-size:13px;">(Pope John Paul II)</text>
        </g>
        <path d="M275,411.793L275,451.793L479,451.793L479,421.793L469,411.793L275,411.793" style="fill:rgb(251,251,119);fill-rule:nonzero;stroke:rgb(168,0,54);stroke-width:1px;"/>
        <path d="M469,411.793L469,421.793L479,421.793L469,411.793" style="fill:rgb(251,251,119);fill-rule:nonzero;stroke:rgb(168,0,54);stroke-width:1px;"/>
        <g transform="matrix(1,0,0,1,281,429.361)">
            <text x="0px" y="0px" style="font-family:'LucidaGrande', 'Lucida Grande', sans-serif;font-weight:500;font-size:13px;">Schismatic act</text>
        </g>
        <g transform="matrix(1,0,0,1,281,444.672)">
            <text x="0px" y="0px" style="font-family:'LucidaGrande', 'Lucida Grande', sans-serif;font-weight:500;font-size:13px;">All bishops excommunicated</text>
        </g>
        <rect x="0" y="482.069" width="619.5" height="3" style="fill:rgb(238,238,238);stroke:rgb(238,238,238);stroke-width:1px;"/>
        <path d="M0,482.069L619.5,482.069" style="fill:none;fill-rule:nonzero;stroke:black;stroke-width:1px;"/>
        <path d="M0,485.069L619.5,485.069" style="fill:none;fill-rule:nonzero;stroke:black;stroke-width:1px;"/>
        <rect x="260.75" y="471.414" width="98" height="23.31" style="fill:rgb(238,238,238);stroke:black;stroke-width:2px;"/>
        <g transform="matrix(1,0,0,1,266.75,487.982)">
            <text x="0px" y="0px" style="font-family:'LucidaGrande-Bold', 'Lucida Grande', sans-serif;font-weight:600;font-size:13px;">1991-2007</text>
        </g>
        <path d="M30.5,526.035L72.5,526.035" style="fill:none;fill-rule:nonzero;stroke:rgb(168,0,54);stroke-width:1px;"/>
        <path d="M72.5,526.035L72.5,539.035" style="fill:none;fill-rule:nonzero;stroke:rgb(168,0,54);stroke-width:1px;"/>
        <path d="M31.5,539.035L72.5,539.035" style="fill:none;fill-rule:nonzero;stroke:rgb(168,0,54);stroke-width:1px;"/>
        <path d="M41.5,535.035L31.5,539.035L41.5,543.035L37.5,539.035L41.5,535.035Z" style="fill:rgb(168,0,54);fill-rule:nonzero;stroke:rgb(168,0,54);stroke-width:1px;"/>
        <g transform="matrix(1,0,0,1,37.5,521.293)">
            <text x="0px" y="0px" style="font-family:'LucidaGrande', 'Lucida Grande', sans-serif;font-weight:500;font-size:13px;">Lefebvre dies (1991)</text>
        </g>
        <path d="M41.5,564.346L31.5,568.346L41.5,572.346L37.5,568.346L41.5,564.346Z" style="fill:rgb(168,0,54);fill-rule:nonzero;stroke:rgb(168,0,54);stroke-width:1px;"/>
        <path d="M35.5,568.346L269.5,568.346" style="fill:none;fill-rule:nonzero;stroke:rgb(168,0,54);stroke-width:1px;"/>
        <g transform="matrix(1,0,0,1,47.5,563.604)">
            <text x="0px" y="0px" style="font-family:'LucidaGrande', 'Lucida Grande', sans-serif;font-weight:500;font-size:13px;">Dialogue attempts</text>
        </g>
        <path d="M270.5,612.967L312.5,612.967" style="fill:none;fill-rule:nonzero;stroke:rgb(168,0,54);stroke-width:1px;"/>
        <path d="M312.5,612.967L312.5,625.967" style="fill:none;fill-rule:nonzero;stroke:rgb(168,0,54);stroke-width:1px;"/>
        <path d="M271.5,625.967L312.5,625.967" style="fill:none;fill-rule:nonzero;stroke:rgb(168,0,54);stroke-width:1px;"/>
        <path d="M281.5,621.967L271.5,625.967L281.5,629.967L277.5,625.967L281.5,621.967Z" style="fill:rgb(168,0,54);fill-rule:nonzero;stroke:rgb(168,0,54);stroke-width:1px;"/>
        <g transform="matrix(1,0,0,1,277.5,592.914)">
            <text x="0px" y="0px" style="font-family:'LucidaGrande', 'Lucida Grande', sans-serif;font-weight:500;font-size:13px;">Benedict XVI liberalizes</text>
        </g>
        <g transform="matrix(1,0,0,1,277.5,608.225)">
            <text x="0px" y="0px" style="font-family:'LucidaGrande', 'Lucida Grande', sans-serif;font-weight:500;font-size:13px;">Latin Mass (2007)</text>
        </g>
        <rect x="0" y="654.622" width="619.5" height="3" style="fill:rgb(238,238,238);stroke:rgb(238,238,238);stroke-width:1px;"/>
        <path d="M0,654.622L619.5,654.622" style="fill:none;fill-rule:nonzero;stroke:black;stroke-width:1px;"/>
        <path d="M0,657.622L619.5,657.622" style="fill:none;fill-rule:nonzero;stroke:black;stroke-width:1px;"/>
        <rect x="208.75" y="643.967" width="202" height="23.311" style="fill:rgb(238,238,238);stroke:black;stroke-width:2px;"/>
        <g transform="matrix(1,0,0,1,214.75,660.535)">
            <text x="0px" y="0px" style="font-family:'LucidaGrande-Bold', 'Lucida Grande', sans-serif;font-weight:600;font-size:13px;">2009: Partial Reconciliation</text>
        </g>
        <path d="M41.5,707.243L31.5,711.243L41.5,715.243L37.5,711.243L41.5,707.243Z" style="fill:rgb(168,0,54);fill-rule:nonzero;stroke:rgb(168,0,54);stroke-width:1px;"/>
        <path d="M35.5,711.243L269.5,711.243" style="fill:none;fill-rule:nonzero;stroke:rgb(168,0,54);stroke-width:1px;"/>
        <g transform="matrix(1,0,0,1,47.5,706.501)">
            <text x="0px" y="0px" style="font-family:'LucidaGrande', 'Lucida Grande', sans-serif;font-weight:500;font-size:13px;">Excommunications lifted</text>
        </g>
        <path d="M275,682.277L275,722.277L432,722.277L432,692.277L422,682.277L275,682.277" style="fill:rgb(251,251,119);fill-rule:nonzero;stroke:rgb(168,0,54);stroke-width:1px;"/>
        <path d="M422,682.277L422,692.277L432,692.277L422,682.277" style="fill:rgb(251,251,119);fill-rule:nonzero;stroke:rgb(168,0,54);stroke-width:1px;"/>
        <g transform="matrix(1,0,0,1,281,699.846)">
            <text x="0px" y="0px" style="font-family:'LucidaGrande', 'Lucida Grande', sans-serif;font-weight:500;font-size:13px;">Status: Still no</text>
        </g>
        <g transform="matrix(1,0,0,1,281,715.156)">
            <text x="0px" y="0px" style="font-family:'LucidaGrande', 'Lucida Grande', sans-serif;font-weight:500;font-size:13px;">canonical recognition</text>
        </g>
        <rect x="0" y="752.554" width="619.5" height="3" style="fill:rgb(238,238,238);stroke:rgb(238,238,238);stroke-width:1px;"/>
        <path d="M0,752.554L619.5,752.554" style="fill:none;fill-rule:nonzero;stroke:black;stroke-width:1px;"/>
        <path d="M0,755.554L619.5,755.554" style="fill:none;fill-rule:nonzero;stroke:black;stroke-width:1px;"/>
        <rect x="219.25" y="741.898" width="181" height="23.311" style="fill:rgb(238,238,238);stroke:black;stroke-width:2px;"/>
        <g transform="matrix(1,0,0,1,225.25,758.467)">
            <text x="0px" y="0px" style="font-family:'LucidaGrande-Bold', 'Lucida Grande', sans-serif;font-weight:600;font-size:13px;">2012: Failed Agreement</text>
        </g>
        <path d="M41.5,792.52L31.5,796.52L41.5,800.52L37.5,796.52L41.5,792.52Z" style="fill:rgb(168,0,54);fill-rule:nonzero;stroke:rgb(168,0,54);stroke-width:1px;"/>
        <path d="M35.5,796.52L269.5,796.52" style="fill:none;fill-rule:nonzero;stroke:rgb(168,0,54);stroke-width:1px;"/>
        <g transform="matrix(1,0,0,1,47.5,791.777)">
            <text x="0px" y="0px" style="font-family:'LucidaGrande', 'Lucida Grande', sans-serif;font-weight:500;font-size:13px;">Oﬀers personal prelature</text>
        </g>
        <path d="M258.5,821.83L268.5,825.83L258.5,829.83L262.5,825.83L258.5,821.83Z" style="fill:rgb(168,0,54);fill-rule:nonzero;stroke:rgb(168,0,54);stroke-width:1px;"/>
        <path d="M30.5,825.83L264.5,825.83" style="fill:none;fill-rule:nonzero;stroke:rgb(168,0,54);stroke-width:1px;"/>
        <g transform="matrix(1,0,0,1,37.5,821.088)">
            <text x="0px" y="0px" style="font-family:'LucidaGrande', 'Lucida Grande', sans-serif;font-weight:500;font-size:13px;">Rejects oﬀer</text>
        </g>
        <rect x="0" y="854.485" width="619.5" height="3" style="fill:rgb(238,238,238);stroke:rgb(238,238,238);stroke-width:1px;"/>
        <path d="M0,854.485L619.5,854.485" style="fill:none;fill-rule:nonzero;stroke:black;stroke-width:1px;"/>
        <path d="M0,857.485L619.5,857.485" style="fill:none;fill-rule:nonzero;stroke:black;stroke-width:1px;"/>
        <rect x="220.25" y="843.83" width="179" height="23.311" style="fill:rgb(238,238,238);stroke:black;stroke-width:2px;"/>
        <g transform="matrix(1,0,0,1,226.25,860.398)">
            <text x="0px" y="0px" style="font-family:'LucidaGrande-Bold', 'Lucida Grande', sans-serif;font-weight:600;font-size:13px;">2013-2025: Francis Era</text>
        </g>
        <path d="M41.5,894.451L31.5,898.451L41.5,902.451L37.5,898.451L41.5,894.451Z" style="fill:rgb(168,0,54);fill-rule:nonzero;stroke:rgb(168,0,54);stroke-width:1px;"/>
        <path d="M35.5,898.451L269.5,898.451" style="fill:none;fill-rule:nonzero;stroke:rgb(168,0,54);stroke-width:1px;"/>
        <g transform="matrix(1,0,0,1,47.5,893.709)">
            <text x="0px" y="0px" style="font-family:'LucidaGrande', 'Lucida Grande', sans-serif;font-weight:500;font-size:13px;">Grants confession faculties (2015)</text>
        </g>
        <path d="M41.5,923.762L31.5,927.762L41.5,931.762L37.5,927.762L41.5,923.762Z" style="fill:rgb(168,0,54);fill-rule:nonzero;stroke:rgb(168,0,54);stroke-width:1px;"/>
        <path d="M35.5,927.762L269.5,927.762" style="fill:none;fill-rule:nonzero;stroke:rgb(168,0,54);stroke-width:1px;"/>
        <g transform="matrix(1,0,0,1,47.5,923.019)">
            <text x="0px" y="0px" style="font-family:'LucidaGrande', 'Lucida Grande', sans-serif;font-weight:500;font-size:13px;">Grants marriage faculties (2017)</text>
        </g>
        <path d="M429.5,957.072L471.5,957.072" style="fill:none;fill-rule:nonzero;stroke:rgb(168,0,54);stroke-width:1px;"/>
        <path d="M471.5,957.072L471.5,970.072" style="fill:none;fill-rule:nonzero;stroke:rgb(168,0,54);stroke-width:1px;"/>
        <path d="M430.5,970.072L471.5,970.072" style="fill:none;fill-rule:nonzero;stroke:rgb(168,0,54);stroke-width:1px;"/>
        <path d="M440.5,966.072L430.5,970.072L440.5,974.072L436.5,970.072L440.5,966.072Z" style="fill:rgb(168,0,54);fill-rule:nonzero;stroke:rgb(168,0,54);stroke-width:1px;"/>
        <g transform="matrix(1,0,0,1,436.5,952.33)">
            <text x="0px" y="0px" style="font-family:'LucidaGrande', 'Lucida Grande', sans-serif;font-weight:500;font-size:13px;">Francis dies Apr 21, 2025</text>
        </g>
        <path d="M429.5,999.383L471.5,999.383" style="fill:none;fill-rule:nonzero;stroke:rgb(168,0,54);stroke-width:1px;"/>
        <path d="M471.5,999.383L471.5,1012.38" style="fill:none;fill-rule:nonzero;stroke:rgb(168,0,54);stroke-width:1px;"/>
        <path d="M430.5,1012.38L471.5,1012.38" style="fill:none;fill-rule:nonzero;stroke:rgb(168,0,54);stroke-width:1px;"/>
        <path d="M440.5,1008.38L430.5,1012.38L440.5,1016.38L436.5,1012.38L440.5,1008.38Z" style="fill:rgb(168,0,54);fill-rule:nonzero;stroke:rgb(168,0,54);stroke-width:1px;"/>
        <g transform="matrix(1,0,0,1,436.5,994.641)">
            <text x="0px" y="0px" style="font-family:'LucidaGrande', 'Lucida Grande', sans-serif;font-weight:500;font-size:13px;">Leo XIV elected May 8, 2025</text>
        </g>
        <rect x="0" y="1041.04" width="619.5" height="3" style="fill:rgb(238,238,238);stroke:rgb(238,238,238);stroke-width:1px;"/>
        <path d="M0,1041.04L619.5,1041.04" style="fill:none;fill-rule:nonzero;stroke:black;stroke-width:1px;"/>
        <path d="M0,1044.04L619.5,1044.04" style="fill:none;fill-rule:nonzero;stroke:black;stroke-width:1px;"/>
        <rect x="222.25" y="1030.38" width="175" height="23.311" style="fill:rgb(238,238,238);stroke:black;stroke-width:2px;"/>
        <g transform="matrix(1,0,0,1,228.25,1046.95)">
            <text x="0px" y="0px" style="font-family:'LucidaGrande-Bold', 'Lucida Grande', sans-serif;font-weight:600;font-size:13px;">2025-2026: New Crisis</text>
        </g>
        <path d="M30.5,1115.62L72.5,1115.62" style="fill:none;fill-rule:nonzero;stroke:rgb(168,0,54);stroke-width:1px;"/>
        <path d="M72.5,1115.62L72.5,1128.62" style="fill:none;fill-rule:nonzero;stroke:rgb(168,0,54);stroke-width:1px;"/>
        <path d="M31.5,1128.62L72.5,1128.62" style="fill:none;fill-rule:nonzero;stroke:rgb(168,0,54);stroke-width:1px;"/>
        <path d="M41.5,1124.62L31.5,1128.62L41.5,1132.62L37.5,1128.62L41.5,1124.62Z" style="fill:rgb(168,0,54);fill-rule:nonzero;stroke:rgb(168,0,54);stroke-width:1px;"/>
        <g transform="matrix(1,0,0,1,37.5,1080.26)">
            <text x="0px" y="0px" style="font-family:'LucidaGrande', 'Lucida Grande', sans-serif;font-weight:500;font-size:13px;">Only 2 bishops remain</text>
        </g>
        <g transform="matrix(1,0,0,1,37.5,1095.57)">
            <text x="0px" y="0px" style="font-family:'LucidaGrande', 'Lucida Grande', sans-serif;font-weight:500;font-size:13px;">(Tissier dies 2024,</text>
        </g>
        <g transform="matrix(1,0,0,1,37.5,1110.88)">
            <text x="0px" y="0px" style="font-family:'LucidaGrande', 'Lucida Grande', sans-serif;font-weight:500;font-size:13px;">Williamson dies 2025)</text>
        </g>
        <path d="M258.5,1153.94L268.5,1157.94L258.5,1161.94L262.5,1157.94L258.5,1153.94Z" style="fill:rgb(168,0,54);fill-rule:nonzero;stroke:rgb(168,0,54);stroke-width:1px;"/>
        <path d="M30.5,1157.94L264.5,1157.94" style="fill:none;fill-rule:nonzero;stroke:rgb(168,0,54);stroke-width:1px;"/>
        <g transform="matrix(1,0,0,1,37.5,1153.19)">
            <text x="0px" y="0px" style="font-family:'LucidaGrande', 'Lucida Grande', sans-serif;font-weight:500;font-size:13px;">Aug 2025: Requests new bishops</text>
        </g>
        <path d="M41.5,1183.25L31.5,1187.25L41.5,1191.25L37.5,1187.25L41.5,1183.25Z" style="fill:rgb(168,0,54);fill-rule:nonzero;stroke:rgb(168,0,54);stroke-width:1px;"/>
        <path d="M35.5,1187.25L269.5,1187.25" style="fill:none;fill-rule:nonzero;stroke:rgb(168,0,54);stroke-width:1px;"/>
        <g transform="matrix(1,0,0,1,47.5,1182.5)">
            <text x="0px" y="0px" style="font-family:'LucidaGrande', 'Lucida Grande', sans-serif;font-weight:500;font-size:13px;">Jan 2026: Denies request</text>
        </g>
        <path d="M258.5,1243.18L268.5,1247.18L258.5,1251.18L262.5,1247.18L258.5,1243.18Z" style="fill:rgb(168,0,54);fill-rule:nonzero;stroke:rgb(168,0,54);stroke-width:1px;"/>
        <path d="M30.5,1247.18L264.5,1247.18" style="fill:none;fill-rule:nonzero;stroke:rgb(168,0,54);stroke-width:1px;"/>
        <g transform="matrix(1,0,0,1,37.5,1211.81)">
            <text x="0px" y="0px" style="font-family:'LucidaGrande', 'Lucida Grande', sans-serif;font-weight:500;font-size:13px;">Feb 2, 2026: Announces</text>
        </g>
        <g transform="matrix(1,0,0,1,37.5,1227.12)">
            <text x="0px" y="0px" style="font-family:'LucidaGrande', 'Lucida Grande', sans-serif;font-weight:500;font-size:13px;">July 1 consecrations</text>
        </g>
        <g transform="matrix(1,0,0,1,37.5,1242.44)">
            <text x="0px" y="0px" style="font-family:'LucidaGrande', 'Lucida Grande', sans-serif;font-weight:500;font-size:13px;">without permission</text>
        </g>
        <path d="M41.5,1292.8L31.5,1296.8L41.5,1300.8L37.5,1296.8L41.5,1292.8Z" style="fill:rgb(168,0,54);fill-rule:nonzero;stroke:rgb(168,0,54);stroke-width:1px;"/>
        <path d="M35.5,1296.8L269.5,1296.8" style="fill:none;fill-rule:nonzero;stroke:rgb(168,0,54);stroke-width:1px;"/>
        <g transform="matrix(1,0,0,1,47.5,1292.06)">
            <text x="0px" y="0px" style="font-family:'LucidaGrande', 'Lucida Grande', sans-serif;font-weight:500;font-size:13px;">Feb 12, 2026: Emergency meeting</text>
        </g>
        <path d="M275,1260.18L275,1315.18L416,1315.18L416,1270.18L406,1260.18L275,1260.18" style="fill:rgb(251,251,119);fill-rule:nonzero;stroke:rgb(168,0,54);stroke-width:1px;"/>
        <path d="M406,1260.18L406,1270.18L416,1270.18L406,1260.18" style="fill:rgb(251,251,119);fill-rule:nonzero;stroke:rgb(168,0,54);stroke-width:1px;"/>
        <g transform="matrix(1,0,0,1,281,1277.75)">
            <text x="0px" y="0px" style="font-family:'LucidaGrande', 'Lucida Grande', sans-serif;font-weight:500;font-size:13px;">History repeating?</text>
        </g>
        <g transform="matrix(1,0,0,1,281,1293.06)">
            <text x="0px" y="0px" style="font-family:'LucidaGrande', 'Lucida Grande', sans-serif;font-weight:500;font-size:13px;">Risk of new</text>
        </g>
        <g transform="matrix(1,0,0,1,281,1308.37)">
            <text x="0px" y="0px" style="font-family:'LucidaGrande', 'Lucida Grande', sans-serif;font-weight:500;font-size:13px;">excommunications</text>
        </g>
        <g transform="matrix(0.0834831,0,0,0.0834831,477.827,1082.76)">
            <g transform="matrix(1.35459,0,0,1.35459,-329.443,-316.146)">
                <g transform="matrix(1.24041,0,0,2.44277,-908.379,-6366.56)">
                    <g>
                        <g transform="matrix(1,0,0,1,726.696,2951.51)">
                            <text x="0px" y="0px" style="font-family:'Luminari-Regular', 'Luminari';font-size:208.333px;fill:rgb(166,166,166);fill-opacity:0.24;">Cybernetic</text>
                        </g>
                        <g transform="matrix(1,0,0,1,1757.32,2951.51)">
                            <text x="0px" y="0px" style="font-family:'Luminari-Regular', 'Luminari';font-size:208.333px;fill:rgb(166,166,166);fill-opacity:0.24;">a</text>
                        </g>
                    </g>
                </g>
                <g transform="matrix(1.24041,0,0,2.44277,-938.035,-5931.6)">
                    <g>
                        <g transform="matrix(1,0,0,1,726.696,2951.51)">
                            <text x="0px" y="0px" style="font-family:'Luminari-Regular', 'Luminari';font-size:208.333px;fill:rgb(166,166,166);fill-opacity:0.24;">.or</text>
                        </g>
                        <g transform="matrix(1,0,0,1,978.571,2951.51)">
                            <text x="0px" y="0px" style="font-family:'Luminari-Regular', 'Luminari';font-size:208.333px;fill:rgb(166,166,166);fill-opacity:0.24;">g</text>
                        </g>
                    </g>
                </g>
                <g transform="matrix(1.94675,0,0,1.98236,-507.355,372.603)">
                    <text x="0px" y="0px" style="font-family:'Luminari-Regular', 'Luminari';font-size:208.333px;fill:rgb(166,166,166);fill-opacity:0.24;">©</text>
                </g>
                <g transform="matrix(1.89245,0,0,2.40276,-9.96415,409.46)">
                    <text x="0px" y="0px" style="font-family:'Luminari-Regular', 'Luminari';font-size:208.333px;fill:rgb(166,166,166);fill-opacity:0.24;">Ecclesia</text>
                </g>
            </g>
        </g>
    </g>
</svg>
